<?xml version="1.0" encoding="UTF-8" standalone="no"?>
<!DOCTYPE svg PUBLIC "-//W3C//DTD SVG 1.1//EN"
 "http://www.w3.org/Graphics/SVG/1.1/DTD/svg11.dtd">
<!-- Generated by graphviz version 13.0.1 (20250615.1724)
 -->
<!-- Title: CFG: _dep_matches_pattern Pages: 1 -->
<svg width="643pt" height="1289pt"
 viewBox="0.00 0.00 643.00 1289.00" xmlns="http://www.w3.org/2000/svg" xmlns:xlink="http://www.w3.org/1999/xlink">
<g id="graph0" class="graph" transform="scale(1 1) rotate(0) translate(4 1284.57)">
<title>CFG: _dep_matches_pattern</title>
<polygon fill="white" stroke="none" points="-4,4 -4,-1284.57 638.75,-1284.57 638.75,4 -4,4"/>
<text xml:space="preserve" text-anchor="middle" x="317.38" y="-1261.37" font-family="Helvetica,sans-Serif" font-size="16.00">CFG: _dep_matches_pattern</text>
<!-- n0 -->
<g id="node1" class="node">
<title>n0</title>
<ellipse fill="#1e293b" stroke="black" cx="152.38" cy="-1222.19" rx="29.88" ry="29.88"/>
<ellipse fill="none" stroke="black" cx="152.38" cy="-1222.19" rx="33.88" ry="33.88"/>
<text xml:space="preserve" text-anchor="middle" x="152.38" y="-1218.32" font-family="Helvetica,sans-Serif" font-size="10.00" fill="#e2e8f0">ENTRY</text>
</g>
<!-- n2 -->
<g id="node3" class="node">
<title>n2</title>
<polygon fill="#f1f5f9" stroke="black" points="304.75,-1151.31 0,-1151.31 0,-1115.31 304.75,-1115.31 304.75,-1151.31"/>
<text xml:space="preserve" text-anchor="middle" x="152.38" y="-1135.06" font-family="Helvetica,sans-Serif" font-size="10.00" fill="#1e293b">string</text>
<text xml:space="preserve" text-anchor="middle" x="152.38" y="-1123.81" font-family="Helvetica,sans-Serif" font-size="10.00" fill="#1e293b">&quot;&quot;&quot;Check whether a single dependency name matches a framewor</text>
</g>
<!-- n0&#45;&gt;n2 -->
<g id="edge19" class="edge">
<title>n0&#45;&gt;n2</title>
<path fill="none" stroke="black" d="M152.38,-1187.85C152.38,-1179.59 152.38,-1170.81 152.38,-1162.8"/>
<polygon fill="black" stroke="black" points="155.88,-1162.92 152.38,-1152.92 148.88,-1162.92 155.88,-1162.92"/>
</g>
<!-- n1 -->
<g id="node2" class="node">
<title>n1</title>
<ellipse fill="#1e293b" stroke="black" cx="218.38" cy="-26.78" rx="22.78" ry="22.78"/>
<ellipse fill="none" stroke="black" cx="218.38" cy="-26.78" rx="26.78" ry="26.78"/>
<text xml:space="preserve" text-anchor="middle" x="218.38" y="-22.91" font-family="Helvetica,sans-Serif" font-size="10.00" fill="#e2e8f0">EXIT</text>
</g>
<!-- n3 -->
<g id="node4" class="node">
<title>n3</title>
<polygon fill="#f1f5f9" stroke="black" points="206.88,-1078.31 97.88,-1078.31 97.88,-1042.31 206.88,-1042.31 206.88,-1078.31"/>
<text xml:space="preserve" text-anchor="middle" x="152.38" y="-1062.06" font-family="Helvetica,sans-Serif" font-size="10.00" fill="#1e293b">comparison_operator</text>
<text xml:space="preserve" text-anchor="middle" x="152.38" y="-1050.81" font-family="Helvetica,sans-Serif" font-size="10.00" fill="#1e293b">dep_name == pattern</text>
</g>
<!-- n2&#45;&gt;n3 -->
<g id="edge2" class="edge">
<title>n2&#45;&gt;n3</title>
<path fill="none" stroke="black" d="M152.38,-1115.12C152.38,-1107.54 152.38,-1098.41 152.38,-1089.85"/>
<polygon fill="black" stroke="black" points="155.88,-1089.85 152.38,-1079.85 148.88,-1089.85 155.88,-1089.85"/>
</g>
<!-- n4 -->
<g id="node5" class="node">
<title>n4</title>
<polygon fill="#f1f5f9" stroke="black" points="187.12,-942.56 97.62,-942.56 97.62,-906.56 187.12,-906.56 187.12,-942.56"/>
<text xml:space="preserve" text-anchor="middle" x="142.38" y="-926.31" font-family="Helvetica,sans-Serif" font-size="10.00" fill="#1e293b">return_statement</text>
<text xml:space="preserve" text-anchor="middle" x="142.38" y="-915.06" font-family="Helvetica,sans-Serif" font-size="10.00" fill="#1e293b">return True</text>
</g>
<!-- n3&#45;&gt;n4 -->
<g id="edge1" class="edge">
<title>n3&#45;&gt;n4</title>
<path fill="none" stroke="#059669" d="M151.07,-1041.83C149.41,-1019.6 146.51,-980.92 144.53,-954.32"/>
<polygon fill="#059669" stroke="#059669" points="148.03,-954.27 143.8,-944.56 141.05,-954.79 148.03,-954.27"/>
<text xml:space="preserve" text-anchor="middle" x="152.28" y="-1015.76" font-family="Helvetica,sans-Serif" font-size="9.00">T</text>
</g>
<!-- n5 -->
<g id="node6" class="node">
<title>n5</title>
<polygon fill="#f1f5f9" stroke="black" points="476.5,-996.56 170.25,-996.56 170.25,-960.56 476.5,-960.56 476.5,-996.56"/>
<text xml:space="preserve" text-anchor="middle" x="323.38" y="-980.31" font-family="Helvetica,sans-Serif" font-size="10.00" fill="#1e293b">boolean_operator</text>
<text xml:space="preserve" text-anchor="middle" x="323.38" y="-969.06" font-family="Helvetica,sans-Serif" font-size="10.00" fill="#1e293b">dep_name.startswith(pattern + DepSeparators.HYPHEN) or dep_n</text>
</g>
<!-- n3&#45;&gt;n5 -->
<g id="edge4" class="edge">
<title>n3&#45;&gt;n5</title>
<path fill="none" stroke="black" d="M189.48,-1042.01C214.83,-1030.19 248.63,-1014.42 275.93,-1001.69"/>
<polygon fill="black" stroke="black" points="277.09,-1005.01 284.68,-997.61 274.13,-998.66 277.09,-1005.01"/>
</g>
<!-- n4&#45;&gt;n1 -->
<g id="edge20" class="edge">
<title>n4&#45;&gt;n1</title>
<path fill="none" stroke="black" d="M142.38,-906.3C142.38,-885.32 142.38,-848.85 142.38,-817.56 142.38,-817.56 142.38,-817.56 142.38,-107.56 142.38,-80.97 164.78,-59.74 185.26,-45.88"/>
<polygon fill="black" stroke="black" points="186.9,-48.99 193.47,-40.67 183.15,-43.08 186.9,-48.99"/>
</g>
<!-- n6 -->
<g id="node7" class="node">
<title>n6</title>
<polygon fill="#f1f5f9" stroke="black" points="252.12,-834.56 162.62,-834.56 162.62,-798.56 252.12,-798.56 252.12,-834.56"/>
<text xml:space="preserve" text-anchor="middle" x="207.38" y="-818.31" font-family="Helvetica,sans-Serif" font-size="10.00" fill="#1e293b">return_statement</text>
<text xml:space="preserve" text-anchor="middle" x="207.38" y="-807.06" font-family="Helvetica,sans-Serif" font-size="10.00" fill="#1e293b">return True</text>
</g>
<!-- n5&#45;&gt;n6 -->
<g id="edge3" class="edge">
<title>n5&#45;&gt;n6</title>
<path fill="none" stroke="#059669" d="M299.91,-960.21C279.25,-943.82 249.67,-917.48 231.38,-888.56 223.2,-875.63 217.47,-859.61 213.67,-846.05"/>
<polygon fill="#059669" stroke="#059669" points="217.06,-845.2 211.18,-836.38 210.28,-846.94 217.06,-845.2"/>
<text xml:space="preserve" text-anchor="middle" x="281.25" y="-920.89" font-family="Helvetica,sans-Serif" font-size="9.00">T</text>
</g>
<!-- n7 -->
<g id="node8" class="node">
<title>n7</title>
<polygon fill="#f1f5f9" stroke="black" points="492.12,-888.56 240.62,-888.56 240.62,-852.56 492.12,-852.56 492.12,-888.56"/>
<text xml:space="preserve" text-anchor="middle" x="366.38" y="-872.31" font-family="Helvetica,sans-Serif" font-size="10.00" fill="#1e293b">comment</text>
<text xml:space="preserve" text-anchor="middle" x="366.38" y="-861.06" font-family="Helvetica,sans-Serif" font-size="10.00" fill="#1e293b"># Contiguous path subsequence: /pattern/ within /dep/</text>
</g>
<!-- n5&#45;&gt;n7 -->
<g id="edge5" class="edge">
<title>n5&#45;&gt;n7</title>
<path fill="none" stroke="black" d="M330.28,-960.53C336.95,-944.09 347.17,-918.91 355.03,-899.53"/>
<polygon fill="black" stroke="black" points="358.26,-900.89 358.77,-890.3 351.77,-898.25 358.26,-900.89"/>
</g>
<!-- n6&#45;&gt;n1 -->
<g id="edge21" class="edge">
<title>n6&#45;&gt;n1</title>
<path fill="none" stroke="black" d="M199.13,-798.19C191.19,-779.85 180.38,-749.89 180.38,-722.69 180.38,-722.69 180.38,-722.69 180.38,-107.56 180.38,-90.15 187.84,-72.51 196.15,-58.25"/>
<polygon fill="black" stroke="black" points="199.1,-60.13 201.45,-49.8 193.17,-56.41 199.1,-60.13"/>
</g>
<!-- n8 -->
<g id="node9" class="node">
<title>n8</title>
<polygon fill="#f1f5f9" stroke="black" points="450.5,-780.56 282.25,-780.56 282.25,-744.56 450.5,-744.56 450.5,-780.56"/>
<text xml:space="preserve" text-anchor="middle" x="366.38" y="-764.31" font-family="Helvetica,sans-Serif" font-size="10.00" fill="#1e293b">comparison_operator</text>
<text xml:space="preserve" text-anchor="middle" x="366.38" y="-753.06" font-family="Helvetica,sans-Serif" font-size="10.00" fill="#1e293b">DepSeparators.PATH in dep_name</text>
</g>
<!-- n7&#45;&gt;n8 -->
<g id="edge9" class="edge">
<title>n7&#45;&gt;n8</title>
<path fill="none" stroke="black" d="M366.38,-852.53C366.38,-836.32 366.38,-811.62 366.38,-792.35"/>
<polygon fill="black" stroke="black" points="369.88,-792.41 366.38,-782.41 362.88,-792.41 369.88,-792.41"/>
</g>
<!-- n9 -->
<g id="node10" class="node">
<title>n9</title>
<polygon fill="#f1f5f9" stroke="black" points="524.38,-698.81 208.38,-698.81 208.38,-662.81 524.38,-662.81 524.38,-698.81"/>
<text xml:space="preserve" text-anchor="middle" x="366.38" y="-682.56" font-family="Helvetica,sans-Serif" font-size="10.00" fill="#1e293b">assignment</text>
<text xml:space="preserve" text-anchor="middle" x="366.38" y="-671.31" font-family="Helvetica,sans-Serif" font-size="10.00" fill="#1e293b">padded = DepSeparators.PATH + dep_name + DepSeparators.PATH</text>
</g>
<!-- n8&#45;&gt;n9 -->
<g id="edge8" class="edge">
<title>n8&#45;&gt;n9</title>
<path fill="none" stroke="#059669" d="M366.38,-744.26C366.38,-734.33 366.38,-721.62 366.38,-710.26"/>
<polygon fill="#059669" stroke="#059669" points="369.88,-710.59 366.38,-700.59 362.88,-710.59 369.88,-710.59"/>
<text xml:space="preserve" text-anchor="middle" x="369" y="-718.01" font-family="Helvetica,sans-Serif" font-size="9.00">T</text>
</g>
<!-- n12 -->
<g id="node13" class="node">
<title>n12</title>
<polygon fill="#f1f5f9" stroke="black" points="569.5,-544.06 377.25,-544.06 377.25,-508.06 569.5,-508.06 569.5,-544.06"/>
<text xml:space="preserve" text-anchor="middle" x="473.38" y="-527.81" font-family="Helvetica,sans-Serif" font-size="10.00" fill="#1e293b">comment</text>
<text xml:space="preserve" text-anchor="middle" x="473.38" y="-516.56" font-family="Helvetica,sans-Serif" font-size="10.00" fill="#1e293b"># npm scoped packages: @scope/name</text>
</g>
<!-- n8&#45;&gt;n12 -->
<g id="edge10" class="edge">
<title>n8&#45;&gt;n12</title>
<path fill="none" stroke="black" d="M450.63,-750.34C481.94,-741.63 514.42,-726.18 533.38,-698.81 542.72,-685.32 537.07,-612.98 527.38,-589.81 521.55,-575.9 511.43,-562.84 501.51,-552.29"/>
<polygon fill="black" stroke="black" points="504.27,-550.1 494.75,-545.46 499.3,-555.03 504.27,-550.1"/>
</g>
<!-- n10 -->
<g id="node11" class="node">
<title>n10</title>
<polygon fill="#f1f5f9" stroke="black" points="518,-625.81 214.75,-625.81 214.75,-589.81 518,-589.81 518,-625.81"/>
<text xml:space="preserve" text-anchor="middle" x="366.38" y="-609.56" font-family="Helvetica,sans-Serif" font-size="10.00" fill="#1e293b">comparison_operator</text>
<text xml:space="preserve" text-anchor="middle" x="366.38" y="-598.31" font-family="Helvetica,sans-Serif" font-size="10.00" fill="#1e293b">(DepSeparators.PATH + pattern + DepSeparators.PATH) in padde</text>
</g>
<!-- n9&#45;&gt;n10 -->
<g id="edge7" class="edge">
<title>n9&#45;&gt;n10</title>
<path fill="none" stroke="black" d="M366.38,-662.62C366.38,-655.04 366.38,-645.91 366.38,-637.35"/>
<polygon fill="black" stroke="black" points="369.88,-637.35 366.38,-627.35 362.88,-637.35 369.88,-637.35"/>
</g>
<!-- n11 -->
<g id="node12" class="node">
<title>n11</title>
<polygon fill="#f1f5f9" stroke="black" points="317.12,-490.06 227.62,-490.06 227.62,-454.06 317.12,-454.06 317.12,-490.06"/>
<text xml:space="preserve" text-anchor="middle" x="272.38" y="-473.81" font-family="Helvetica,sans-Serif" font-size="10.00" fill="#1e293b">return_statement</text>
<text xml:space="preserve" text-anchor="middle" x="272.38" y="-462.56" font-family="Helvetica,sans-Serif" font-size="10.00" fill="#1e293b">return True</text>
</g>
<!-- n10&#45;&gt;n11 -->
<g id="edge6" class="edge">
<title>n10&#45;&gt;n11</title>
<path fill="none" stroke="#059669" d="M354.09,-589.33C338.04,-566.5 309.8,-526.32 291.09,-499.69"/>
<polygon fill="#059669" stroke="#059669" points="294.15,-497.96 285.54,-491.79 288.42,-501.98 294.15,-497.96"/>
<text xml:space="preserve" text-anchor="middle" x="343.43" y="-563.26" font-family="Helvetica,sans-Serif" font-size="9.00">T</text>
</g>
<!-- n10&#45;&gt;n12 -->
<g id="edge11" class="edge">
<title>n10&#45;&gt;n12</title>
<path fill="none" stroke="black" d="M389.59,-589.51C404.74,-578.22 424.71,-563.34 441.35,-550.93"/>
<polygon fill="black" stroke="black" points="443.06,-554.02 448.99,-545.24 438.88,-548.41 443.06,-554.02"/>
</g>
<!-- n11&#45;&gt;n1 -->
<g id="edge22" class="edge">
<title>n11&#45;&gt;n1</title>
<path fill="none" stroke="black" d="M254.69,-453.61C238.94,-436.13 218.38,-407.65 218.38,-378.19 218.38,-378.19 218.38,-378.19 218.38,-107.56 218.38,-93.74 218.38,-78.58 218.38,-65.21"/>
<polygon fill="black" stroke="black" points="221.88,-65.52 218.38,-55.52 214.88,-65.52 221.88,-65.52"/>
</g>
<!-- n13 -->
<g id="node14" class="node">
<title>n13</title>
<polygon fill="#f1f5f9" stroke="black" points="634.75,-436.06 312,-436.06 312,-400.06 634.75,-400.06 634.75,-436.06"/>
<text xml:space="preserve" text-anchor="middle" x="473.38" y="-419.81" font-family="Helvetica,sans-Serif" font-size="10.00" fill="#1e293b">boolean_operator</text>
<text xml:space="preserve" text-anchor="middle" x="473.38" y="-408.56" font-family="Helvetica,sans-Serif" font-size="10.00" fill="#1e293b">dep_name.startswith(DepSeparators.NPM_SCOPE) and DepSeparato</text>
</g>
<!-- n12&#45;&gt;n13 -->
<g id="edge16" class="edge">
<title>n12&#45;&gt;n13</title>
<path fill="none" stroke="black" d="M473.38,-508.03C473.38,-491.82 473.38,-467.12 473.38,-447.85"/>
<polygon fill="black" stroke="black" points="476.88,-447.91 473.38,-437.91 469.88,-447.91 476.88,-447.91"/>
</g>
<!-- n14 -->
<g id="node15" class="node">
<title>n14</title>
<polygon fill="#f1f5f9" stroke="black" points="502.75,-354.31 246,-354.31 246,-318.31 502.75,-318.31 502.75,-354.31"/>
<text xml:space="preserve" text-anchor="middle" x="374.38" y="-338.06" font-family="Helvetica,sans-Serif" font-size="10.00" fill="#1e293b">assignment</text>
<text xml:space="preserve" text-anchor="middle" x="374.38" y="-326.81" font-family="Helvetica,sans-Serif" font-size="10.00" fill="#1e293b">scope = dep_name[1:].split(DepSeparators.PATH, 1)[0]</text>
</g>
<!-- n13&#45;&gt;n14 -->
<g id="edge15" class="edge">
<title>n13&#45;&gt;n14</title>
<path fill="none" stroke="#059669" d="M451.89,-399.76C438.01,-388.57 419.75,-373.86 404.43,-361.53"/>
<polygon fill="#059669" stroke="#059669" points="406.98,-359.08 396.99,-355.53 402.59,-364.53 406.98,-359.08"/>
<text xml:space="preserve" text-anchor="middle" x="432.43" y="-373.51" font-family="Helvetica,sans-Serif" font-size="9.00">T</text>
</g>
<!-- n18 -->
<g id="node19" class="node">
<title>n18</title>
<polygon fill="#f1f5f9" stroke="black" points="444.12,-126.56 354.62,-126.56 354.62,-90.56 444.12,-90.56 444.12,-126.56"/>
<text xml:space="preserve" text-anchor="middle" x="399.38" y="-110.31" font-family="Helvetica,sans-Serif" font-size="10.00" fill="#1e293b">return_statement</text>
<text xml:space="preserve" text-anchor="middle" x="399.38" y="-99.06" font-family="Helvetica,sans-Serif" font-size="10.00" fill="#1e293b">return False</text>
</g>
<!-- n13&#45;&gt;n18 -->
<g id="edge18" class="edge">
<title>n13&#45;&gt;n18</title>
<path fill="none" stroke="black" d="M495.58,-399.6C511.58,-384.91 530.38,-362.33 530.38,-337.31 530.38,-337.31 530.38,-337.31 530.38,-189.31 530.38,-151.91 490.93,-131.54 455.33,-120.78"/>
<polygon fill="black" stroke="black" points="456.49,-117.46 445.92,-118.14 454.6,-124.21 456.49,-117.46"/>
</g>
<!-- n15 -->
<g id="node16" class="node">
<title>n15</title>
<polygon fill="#f1f5f9" stroke="black" points="494.5,-281.31 254.25,-281.31 254.25,-245.31 494.5,-245.31 494.5,-281.31"/>
<text xml:space="preserve" text-anchor="middle" x="374.38" y="-265.06" font-family="Helvetica,sans-Serif" font-size="10.00" fill="#1e293b">assignment</text>
<text xml:space="preserve" text-anchor="middle" x="374.38" y="-253.81" font-family="Helvetica,sans-Serif" font-size="10.00" fill="#1e293b">name = dep_name.split(DepSeparators.PATH, 1)[1]</text>
</g>
<!-- n14&#45;&gt;n15 -->
<g id="edge12" class="edge">
<title>n14&#45;&gt;n15</title>
<path fill="none" stroke="black" d="M374.38,-318.12C374.38,-310.54 374.38,-301.41 374.38,-292.85"/>
<polygon fill="black" stroke="black" points="377.88,-292.85 374.38,-282.85 370.88,-292.85 377.88,-292.85"/>
</g>
<!-- n16 -->
<g id="node17" class="node">
<title>n16</title>
<polygon fill="#f1f5f9" stroke="black" points="462.62,-208.31 286.12,-208.31 286.12,-172.31 462.62,-172.31 462.62,-208.31"/>
<text xml:space="preserve" text-anchor="middle" x="374.38" y="-192.06" font-family="Helvetica,sans-Serif" font-size="10.00" fill="#1e293b">boolean_operator</text>
<text xml:space="preserve" text-anchor="middle" x="374.38" y="-180.81" font-family="Helvetica,sans-Serif" font-size="10.00" fill="#1e293b">scope == pattern or name == pattern</text>
</g>
<!-- n15&#45;&gt;n16 -->
<g id="edge14" class="edge">
<title>n15&#45;&gt;n16</title>
<path fill="none" stroke="black" d="M374.38,-245.12C374.38,-237.54 374.38,-228.41 374.38,-219.85"/>
<polygon fill="black" stroke="black" points="377.88,-219.85 374.38,-209.85 370.88,-219.85 377.88,-219.85"/>
</g>
<!-- n17 -->
<g id="node18" class="node">
<title>n17</title>
<polygon fill="#f1f5f9" stroke="black" points="336.12,-126.56 246.62,-126.56 246.62,-90.56 336.12,-90.56 336.12,-126.56"/>
<text xml:space="preserve" text-anchor="middle" x="291.38" y="-110.31" font-family="Helvetica,sans-Serif" font-size="10.00" fill="#1e293b">return_statement</text>
<text xml:space="preserve" text-anchor="middle" x="291.38" y="-99.06" font-family="Helvetica,sans-Serif" font-size="10.00" fill="#1e293b">return True</text>
</g>
<!-- n16&#45;&gt;n17 -->
<g id="edge13" class="edge">
<title>n16&#45;&gt;n17</title>
<path fill="none" stroke="#059669" d="M356.37,-172.01C344.94,-161.03 329.99,-146.66 317.3,-134.47"/>
<polygon fill="#059669" stroke="#059669" points="320.08,-132.28 310.44,-127.88 315.23,-137.33 320.08,-132.28"/>
<text xml:space="preserve" text-anchor="middle" x="340.47" y="-145.76" font-family="Helvetica,sans-Serif" font-size="9.00">T</text>
</g>
<!-- n16&#45;&gt;n18 -->
<g id="edge17" class="edge">
<title>n16&#45;&gt;n18</title>
<path fill="none" stroke="black" d="M379.8,-172.01C382.94,-161.97 386.98,-149.1 390.57,-137.65"/>
<polygon fill="black" stroke="black" points="393.86,-138.86 393.51,-128.28 387.18,-136.77 393.86,-138.86"/>
</g>
<!-- n17&#45;&gt;n1 -->
<g id="edge23" class="edge">
<title>n17&#45;&gt;n1</title>
<path fill="none" stroke="black" d="M275.54,-90.25C266.31,-80.17 254.47,-67.22 243.95,-55.73"/>
<polygon fill="black" stroke="black" points="246.59,-53.43 237.26,-48.42 241.43,-58.16 246.59,-53.43"/>
</g>
<!-- n18&#45;&gt;n1 -->
<g id="edge24" class="edge">
<title>n18&#45;&gt;n1</title>
<path fill="none" stroke="black" d="M360.1,-90.25C328.2,-76.19 283.64,-56.55 253.04,-43.06"/>
<polygon fill="black" stroke="black" points="254.8,-40.01 244.23,-39.18 251.97,-46.41 254.8,-40.01"/>
</g>
</g>
</svg>
