<?xml version="1.0" encoding="UTF-8" standalone="no"?>
<!DOCTYPE svg PUBLIC "-//W3C//DTD SVG 1.1//EN"
 "http://www.w3.org/Graphics/SVG/1.1/DTD/svg11.dtd">
<!-- Generated by graphviz version 13.0.1 (20250615.1724)
 -->
<!-- Title: CFG: _dep_matches_pattern Pages: 1 -->
<svg width="786pt" height="1444pt"
 viewBox="0.00 0.00 786.00 1444.00" xmlns="http://www.w3.org/2000/svg" xmlns:xlink="http://www.w3.org/1999/xlink">
<g id="graph0" class="graph" transform="scale(1 1) rotate(0) translate(4 1440.06)">
<title>CFG: _dep_matches_pattern</title>
<polygon fill="white" stroke="none" points="-4,4 -4,-1440.06 781.62,-1440.06 781.62,4 -4,4"/>
<text xml:space="preserve" text-anchor="middle" x="388.81" y="-7.2" font-family="Times,serif" font-size="14.00">CFG: _dep_matches_pattern</text>
<!-- n0 -->
<g id="node1" class="node">
<title>n0</title>
<ellipse fill="none" stroke="black" cx="189.5" cy="-1390.43" rx="41.63" ry="41.63"/>
<ellipse fill="none" stroke="black" cx="189.5" cy="-1390.43" rx="45.63" ry="45.63"/>
<text xml:space="preserve" text-anchor="middle" x="189.5" y="-1385.38" font-family="Times,serif" font-size="14.00">ENTRY</text>
</g>
<!-- n2 -->
<g id="node3" class="node">
<title>n2</title>
<polygon fill="none" stroke="black" points="379,-1307.81 0,-1307.81 0,-1266.81 379,-1266.81 379,-1307.81"/>
<text xml:space="preserve" text-anchor="middle" x="189.5" y="-1290.51" font-family="Times,serif" font-size="14.00">string</text>
<text xml:space="preserve" text-anchor="middle" x="189.5" y="-1274.01" font-family="Times,serif" font-size="14.00">&quot;&quot;&quot;Check whether a single dependency name matches a framewor</text>
</g>
<!-- n0&#45;&gt;n2 -->
<g id="edge19" class="edge">
<title>n0&#45;&gt;n2</title>
<path fill="none" stroke="black" d="M189.5,-1344.49C189.5,-1336.01 189.5,-1327.32 189.5,-1319.39"/>
<polygon fill="black" stroke="black" points="193,-1319.56 189.5,-1309.56 186,-1319.56 193,-1319.56"/>
</g>
<!-- n1 -->
<g id="node2" class="node">
<title>n1</title>
<ellipse fill="none" stroke="black" cx="254.5" cy="-60.4" rx="31.9" ry="31.9"/>
<ellipse fill="none" stroke="black" cx="254.5" cy="-60.4" rx="35.9" ry="35.9"/>
<text xml:space="preserve" text-anchor="middle" x="254.5" y="-55.35" font-family="Times,serif" font-size="14.00">EXIT</text>
</g>
<!-- n3 -->
<g id="node4" class="node">
<title>n3</title>
<polygon fill="none" stroke="black" points="256.38,-1229.81 122.62,-1229.81 122.62,-1188.81 256.38,-1188.81 256.38,-1229.81"/>
<text xml:space="preserve" text-anchor="middle" x="189.5" y="-1212.51" font-family="Times,serif" font-size="14.00">comparison_operator</text>
<text xml:space="preserve" text-anchor="middle" x="189.5" y="-1196.01" font-family="Times,serif" font-size="14.00">dep_name == pattern</text>
</g>
<!-- n2&#45;&gt;n3 -->
<g id="edge2" class="edge">
<title>n2&#45;&gt;n3</title>
<path fill="none" stroke="black" d="M189.5,-1266.34C189.5,-1258.74 189.5,-1249.9 189.5,-1241.51"/>
<polygon fill="black" stroke="black" points="193,-1241.65 189.5,-1231.65 186,-1241.65 193,-1241.65"/>
</g>
<!-- n4 -->
<g id="node5" class="node">
<title>n4</title>
<polygon fill="none" stroke="black" points="232.25,-1077.31 124.75,-1077.31 124.75,-1036.31 232.25,-1036.31 232.25,-1077.31"/>
<text xml:space="preserve" text-anchor="middle" x="178.5" y="-1060.01" font-family="Times,serif" font-size="14.00">return_statement</text>
<text xml:space="preserve" text-anchor="middle" x="178.5" y="-1043.51" font-family="Times,serif" font-size="14.00">return True</text>
</g>
<!-- n3&#45;&gt;n4 -->
<g id="edge1" class="edge">
<title>n3&#45;&gt;n4</title>
<path fill="none" stroke="green" d="M188.04,-1188.32C186.18,-1162.88 182.95,-1118.66 180.77,-1088.82"/>
<polygon fill="green" stroke="green" points="184.26,-1088.62 180.04,-1078.9 177.28,-1089.13 184.26,-1088.62"/>
<text xml:space="preserve" text-anchor="middle" x="190.84" y="-1157.51" font-family="Times,serif" font-size="14.00">T</text>
</g>
<!-- n5 -->
<g id="node6" class="node">
<title>n5</title>
<polygon fill="none" stroke="black" points="586.75,-1136.31 206.25,-1136.31 206.25,-1095.31 586.75,-1095.31 586.75,-1136.31"/>
<text xml:space="preserve" text-anchor="middle" x="396.5" y="-1119.01" font-family="Times,serif" font-size="14.00">boolean_operator</text>
<text xml:space="preserve" text-anchor="middle" x="396.5" y="-1102.51" font-family="Times,serif" font-size="14.00">dep_name.startswith(pattern + DepSeparators.HYPHEN) or dep_n</text>
</g>
<!-- n3&#45;&gt;n5 -->
<g id="edge4" class="edge">
<title>n3&#45;&gt;n5</title>
<path fill="none" stroke="black" d="M234.67,-1188.34C265.91,-1174.53 307.67,-1156.07 340.94,-1141.36"/>
<polygon fill="black" stroke="black" points="342.31,-1144.59 350.04,-1137.34 339.48,-1138.18 342.31,-1144.59"/>
</g>
<!-- n4&#45;&gt;n1 -->
<g id="edge20" class="edge">
<title>n4&#45;&gt;n1</title>
<path fill="none" stroke="black" d="M178.5,-1036.1C178.5,-1013.02 178.5,-973.64 178.5,-939.81 178.5,-939.81 178.5,-939.81 178.5,-152.81 178.5,-126.79 196.92,-104.24 215.63,-88.04"/>
<polygon fill="black" stroke="black" points="217.75,-90.83 223.29,-81.79 213.33,-85.4 217.75,-90.83"/>
</g>
<!-- n6 -->
<g id="node7" class="node">
<title>n6</title>
<polygon fill="none" stroke="black" points="306.25,-959.31 198.75,-959.31 198.75,-918.31 306.25,-918.31 306.25,-959.31"/>
<text xml:space="preserve" text-anchor="middle" x="252.5" y="-942.01" font-family="Times,serif" font-size="14.00">return_statement</text>
<text xml:space="preserve" text-anchor="middle" x="252.5" y="-925.51" font-family="Times,serif" font-size="14.00">return True</text>
</g>
<!-- n5&#45;&gt;n6 -->
<g id="edge3" class="edge">
<title>n5&#45;&gt;n6</title>
<path fill="none" stroke="green" d="M361.07,-1094.88C333.9,-1077.87 297.44,-1050.99 275.5,-1018.31 265.97,-1004.12 260.32,-985.93 257.01,-970.63"/>
<polygon fill="green" stroke="green" points="260.5,-970.26 255.18,-961.09 253.62,-971.57 260.5,-970.26"/>
<text xml:space="preserve" text-anchor="middle" x="338.78" y="-1051.76" font-family="Times,serif" font-size="14.00">T</text>
</g>
<!-- n7 -->
<g id="node8" class="node">
<title>n7</title>
<polygon fill="none" stroke="black" points="594.12,-1018.31 284.88,-1018.31 284.88,-977.31 594.12,-977.31 594.12,-1018.31"/>
<text xml:space="preserve" text-anchor="middle" x="439.5" y="-1001.01" font-family="Times,serif" font-size="14.00">comment</text>
<text xml:space="preserve" text-anchor="middle" x="439.5" y="-984.51" font-family="Times,serif" font-size="14.00"># Contiguous path subsequence: /pattern/ within /dep/</text>
</g>
<!-- n5&#45;&gt;n7 -->
<g id="edge5" class="edge">
<title>n5&#45;&gt;n7</title>
<path fill="none" stroke="black" d="M403.89,-1094.86C410.58,-1076.83 420.52,-1050 428.2,-1029.28"/>
<polygon fill="black" stroke="black" points="431.48,-1030.5 431.68,-1019.91 424.92,-1028.07 431.48,-1030.5"/>
</g>
<!-- n6&#45;&gt;n1 -->
<g id="edge21" class="edge">
<title>n6&#45;&gt;n1</title>
<path fill="none" stroke="black" d="M241.11,-917.85C230.56,-897.46 216.5,-864.56 216.5,-834.06 216.5,-834.06 216.5,-834.06 216.5,-152.81 216.5,-134.9 222.79,-116.43 230.26,-100.82"/>
<polygon fill="black" stroke="black" points="233.15,-102.86 234.59,-92.36 226.92,-99.67 233.15,-102.86"/>
</g>
<!-- n8 -->
<g id="node9" class="node">
<title>n8</title>
<polygon fill="none" stroke="black" points="544.12,-900.31 336.88,-900.31 336.88,-859.31 544.12,-859.31 544.12,-900.31"/>
<text xml:space="preserve" text-anchor="middle" x="440.5" y="-883.01" font-family="Times,serif" font-size="14.00">comparison_operator</text>
<text xml:space="preserve" text-anchor="middle" x="440.5" y="-866.51" font-family="Times,serif" font-size="14.00">DepSeparators.PATH in dep_name</text>
</g>
<!-- n7&#45;&gt;n8 -->
<g id="edge9" class="edge">
<title>n7&#45;&gt;n8</title>
<path fill="none" stroke="black" d="M439.67,-976.86C439.83,-958.99 440.05,-932.5 440.23,-911.85"/>
<polygon fill="black" stroke="black" points="443.73,-912.03 440.32,-902 436.73,-911.97 443.73,-912.03"/>
</g>
<!-- n9 -->
<g id="node10" class="node">
<title>n9</title>
<polygon fill="none" stroke="black" points="636.75,-806.81 244.25,-806.81 244.25,-765.81 636.75,-765.81 636.75,-806.81"/>
<text xml:space="preserve" text-anchor="middle" x="440.5" y="-789.51" font-family="Times,serif" font-size="14.00">assignment</text>
<text xml:space="preserve" text-anchor="middle" x="440.5" y="-773.01" font-family="Times,serif" font-size="14.00">padded = DepSeparators.PATH + dep_name + DepSeparators.PATH</text>
</g>
<!-- n8&#45;&gt;n9 -->
<g id="edge8" class="edge">
<title>n8&#45;&gt;n9</title>
<path fill="none" stroke="green" d="M440.5,-858.95C440.5,-847.08 440.5,-831.74 440.5,-818.31"/>
<polygon fill="green" stroke="green" points="444,-818.63 440.5,-808.63 437,-818.63 444,-818.63"/>
<text xml:space="preserve" text-anchor="middle" x="444.62" y="-828.01" font-family="Times,serif" font-size="14.00">T</text>
</g>
<!-- n12 -->
<g id="node13" class="node">
<title>n12</title>
<polygon fill="none" stroke="black" points="694.75,-635.31 464.25,-635.31 464.25,-594.31 694.75,-594.31 694.75,-635.31"/>
<text xml:space="preserve" text-anchor="middle" x="579.5" y="-618.01" font-family="Times,serif" font-size="14.00">comment</text>
<text xml:space="preserve" text-anchor="middle" x="579.5" y="-601.51" font-family="Times,serif" font-size="14.00"># npm scoped packages: @scope/name</text>
</g>
<!-- n8&#45;&gt;n12 -->
<g id="edge10" class="edge">
<title>n8&#45;&gt;n12</title>
<path fill="none" stroke="black" d="M544.55,-867.42C582.71,-857.63 622.22,-839.66 645.5,-806.81 655.76,-792.33 647.13,-708.91 638.5,-687.81 631.84,-671.52 620.18,-656.06 608.97,-643.68"/>
<polygon fill="black" stroke="black" points="611.8,-641.58 602.39,-636.72 606.71,-646.39 611.8,-641.58"/>
</g>
<!-- n10 -->
<g id="node11" class="node">
<title>n10</title>
<polygon fill="none" stroke="black" points="629.62,-728.81 251.38,-728.81 251.38,-687.81 629.62,-687.81 629.62,-728.81"/>
<text xml:space="preserve" text-anchor="middle" x="440.5" y="-711.51" font-family="Times,serif" font-size="14.00">comparison_operator</text>
<text xml:space="preserve" text-anchor="middle" x="440.5" y="-695.01" font-family="Times,serif" font-size="14.00">(DepSeparators.PATH + pattern + DepSeparators.PATH) in padde</text>
</g>
<!-- n9&#45;&gt;n10 -->
<g id="edge7" class="edge">
<title>n9&#45;&gt;n10</title>
<path fill="none" stroke="black" d="M440.5,-765.34C440.5,-757.74 440.5,-748.9 440.5,-740.51"/>
<polygon fill="black" stroke="black" points="444,-740.65 440.5,-730.65 437,-740.65 444,-740.65"/>
</g>
<!-- n11 -->
<g id="node12" class="node">
<title>n11</title>
<polygon fill="none" stroke="black" points="378.25,-576.31 270.75,-576.31 270.75,-535.31 378.25,-535.31 378.25,-576.31"/>
<text xml:space="preserve" text-anchor="middle" x="324.5" y="-559.01" font-family="Times,serif" font-size="14.00">return_statement</text>
<text xml:space="preserve" text-anchor="middle" x="324.5" y="-542.51" font-family="Times,serif" font-size="14.00">return True</text>
</g>
<!-- n10&#45;&gt;n11 -->
<g id="edge6" class="edge">
<title>n10&#45;&gt;n11</title>
<path fill="none" stroke="green" d="M425.1,-687.32C404.96,-661.2 369.58,-615.29 346.59,-585.47"/>
<polygon fill="green" stroke="green" points="349.4,-583.38 340.52,-577.59 343.86,-587.65 349.4,-583.38"/>
<text xml:space="preserve" text-anchor="middle" x="415.28" y="-656.51" font-family="Times,serif" font-size="14.00">T</text>
</g>
<!-- n10&#45;&gt;n12 -->
<g id="edge11" class="edge">
<title>n10&#45;&gt;n12</title>
<path fill="none" stroke="black" d="M470.66,-687.45C490.97,-674.08 517.96,-656.31 539.99,-641.82"/>
<polygon fill="black" stroke="black" points="541.71,-644.87 548.13,-636.45 537.86,-639.03 541.71,-644.87"/>
</g>
<!-- n11&#45;&gt;n1 -->
<g id="edge22" class="edge">
<title>n11&#45;&gt;n1</title>
<path fill="none" stroke="black" d="M300.41,-534.83C280.16,-515.66 254.5,-484.73 254.5,-451.06 254.5,-451.06 254.5,-451.06 254.5,-152.81 254.5,-138.16 254.5,-122.18 254.5,-107.75"/>
<polygon fill="black" stroke="black" points="258,-108.07 254.5,-98.07 251,-108.07 258,-108.07"/>
</g>
<!-- n13 -->
<g id="node14" class="node">
<title>n13</title>
<polygon fill="none" stroke="black" points="777.62,-517.31 381.38,-517.31 381.38,-476.31 777.62,-476.31 777.62,-517.31"/>
<text xml:space="preserve" text-anchor="middle" x="579.5" y="-500.01" font-family="Times,serif" font-size="14.00">boolean_operator</text>
<text xml:space="preserve" text-anchor="middle" x="579.5" y="-483.51" font-family="Times,serif" font-size="14.00">dep_name.startswith(DepSeparators.NPM_SCOPE) and DepSeparato</text>
</g>
<!-- n12&#45;&gt;n13 -->
<g id="edge16" class="edge">
<title>n12&#45;&gt;n13</title>
<path fill="none" stroke="black" d="M579.5,-593.86C579.5,-575.99 579.5,-549.5 579.5,-528.85"/>
<polygon fill="black" stroke="black" points="583,-529 579.5,-519 576,-529 583,-529"/>
</g>
<!-- n14 -->
<g id="node15" class="node">
<title>n14</title>
<polygon fill="none" stroke="black" points="604.12,-423.81 282.88,-423.81 282.88,-382.81 604.12,-382.81 604.12,-423.81"/>
<text xml:space="preserve" text-anchor="middle" x="443.5" y="-406.51" font-family="Times,serif" font-size="14.00">assignment</text>
<text xml:space="preserve" text-anchor="middle" x="443.5" y="-390.01" font-family="Times,serif" font-size="14.00">scope = dep_name[1:].split(DepSeparators.PATH, 1)[0]</text>
</g>
<!-- n13&#45;&gt;n14 -->
<g id="edge15" class="edge">
<title>n13&#45;&gt;n14</title>
<path fill="none" stroke="green" d="M549.99,-475.95C530.21,-462.64 503.95,-444.97 482.45,-430.51"/>
<polygon fill="green" stroke="green" points="484.46,-427.64 474.21,-424.97 480.55,-433.45 484.46,-427.64"/>
<text xml:space="preserve" text-anchor="middle" x="527.81" y="-445.01" font-family="Times,serif" font-size="14.00">T</text>
</g>
<!-- n18 -->
<g id="node19" class="node">
<title>n18</title>
<polygon fill="none" stroke="black" points="516.25,-174.31 408.75,-174.31 408.75,-133.31 516.25,-133.31 516.25,-174.31"/>
<text xml:space="preserve" text-anchor="middle" x="462.5" y="-157.01" font-family="Times,serif" font-size="14.00">return_statement</text>
<text xml:space="preserve" text-anchor="middle" x="462.5" y="-140.51" font-family="Times,serif" font-size="14.00">return False</text>
</g>
<!-- n13&#45;&gt;n18 -->
<g id="edge18" class="edge">
<title>n13&#45;&gt;n18</title>
<path fill="none" stroke="black" d="M599.24,-475.9C614.3,-458.52 632.5,-431.84 632.5,-404.31 632.5,-404.31 632.5,-404.31 632.5,-246.31 632.5,-196.55 575.34,-173.73 527.32,-163.34"/>
<polygon fill="black" stroke="black" points="528.27,-159.96 517.77,-161.43 526.89,-166.83 528.27,-159.96"/>
</g>
<!-- n15 -->
<g id="node16" class="node">
<title>n15</title>
<polygon fill="none" stroke="black" points="594,-345.81 293,-345.81 293,-304.81 594,-304.81 594,-345.81"/>
<text xml:space="preserve" text-anchor="middle" x="443.5" y="-328.51" font-family="Times,serif" font-size="14.00">assignment</text>
<text xml:space="preserve" text-anchor="middle" x="443.5" y="-312.01" font-family="Times,serif" font-size="14.00">name = dep_name.split(DepSeparators.PATH, 1)[1]</text>
</g>
<!-- n14&#45;&gt;n15 -->
<g id="edge12" class="edge">
<title>n14&#45;&gt;n15</title>
<path fill="none" stroke="black" d="M443.5,-382.34C443.5,-374.74 443.5,-365.9 443.5,-357.51"/>
<polygon fill="black" stroke="black" points="447,-357.65 443.5,-347.65 440,-357.65 447,-357.65"/>
</g>
<!-- n16 -->
<g id="node17" class="node">
<title>n16</title>
<polygon fill="none" stroke="black" points="552.75,-267.81 334.25,-267.81 334.25,-226.81 552.75,-226.81 552.75,-267.81"/>
<text xml:space="preserve" text-anchor="middle" x="443.5" y="-250.51" font-family="Times,serif" font-size="14.00">boolean_operator</text>
<text xml:space="preserve" text-anchor="middle" x="443.5" y="-234.01" font-family="Times,serif" font-size="14.00">scope == pattern or name == pattern</text>
</g>
<!-- n15&#45;&gt;n16 -->
<g id="edge14" class="edge">
<title>n15&#45;&gt;n16</title>
<path fill="none" stroke="black" d="M443.5,-304.34C443.5,-296.74 443.5,-287.9 443.5,-279.51"/>
<polygon fill="black" stroke="black" points="447,-279.65 443.5,-269.65 440,-279.65 447,-279.65"/>
</g>
<!-- n17 -->
<g id="node18" class="node">
<title>n17</title>
<polygon fill="none" stroke="black" points="390.25,-174.31 282.75,-174.31 282.75,-133.31 390.25,-133.31 390.25,-174.31"/>
<text xml:space="preserve" text-anchor="middle" x="336.5" y="-157.01" font-family="Times,serif" font-size="14.00">return_statement</text>
<text xml:space="preserve" text-anchor="middle" x="336.5" y="-140.51" font-family="Times,serif" font-size="14.00">return True</text>
</g>
<!-- n16&#45;&gt;n17 -->
<g id="edge13" class="edge">
<title>n16&#45;&gt;n17</title>
<path fill="none" stroke="green" d="M420.28,-226.45C405,-213.38 384.8,-196.11 368.06,-181.8"/>
<polygon fill="green" stroke="green" points="370.7,-179.44 360.82,-175.6 366.15,-184.76 370.7,-179.44"/>
<text xml:space="preserve" text-anchor="middle" x="403.71" y="-195.51" font-family="Times,serif" font-size="14.00">T</text>
</g>
<!-- n16&#45;&gt;n18 -->
<g id="edge17" class="edge">
<title>n16&#45;&gt;n18</title>
<path fill="none" stroke="black" d="M447.62,-226.45C450.09,-214.58 453.27,-199.24 456.06,-185.81"/>
<polygon fill="black" stroke="black" points="459.47,-186.61 458.08,-176.1 452.62,-185.18 459.47,-186.61"/>
</g>
<!-- n17&#45;&gt;n1 -->
<g id="edge23" class="edge">
<title>n17&#45;&gt;n1</title>
<path fill="none" stroke="black" d="M318.71,-132.97C309.06,-122.22 296.86,-108.62 285.7,-96.18"/>
<polygon fill="black" stroke="black" points="288.47,-94.02 279.18,-88.92 283.26,-98.7 288.47,-94.02"/>
</g>
<!-- n18&#45;&gt;n1 -->
<g id="edge24" class="edge">
<title>n18&#45;&gt;n1</title>
<path fill="none" stroke="black" d="M417.11,-132.86C381.58,-117.25 332.5,-95.68 297.57,-80.33"/>
<polygon fill="black" stroke="black" points="299.17,-77.21 288.6,-76.39 296.35,-83.62 299.17,-77.21"/>
</g>
</g>
</svg>
