<?xml version="1.0" encoding="UTF-8" standalone="no"?>
<!DOCTYPE svg PUBLIC "-//W3C//DTD SVG 1.1//EN"
 "http://www.w3.org/Graphics/SVG/1.1/DTD/svg11.dtd">
<!-- Generated by graphviz version 13.0.1 (20250615.1724)
 -->
<!-- Title: Codescry Integration Signals Pages: 1 -->
<svg width="1407pt" height="1424pt"
 viewBox="0.00 0.00 1407.00 1424.00" xmlns="http://www.w3.org/2000/svg" xmlns:xlink="http://www.w3.org/1999/xlink">
<g id="graph0" class="graph" transform="scale(1 1) rotate(0) translate(4 1420.44)">
<title>Codescry Integration Signals</title>
<polygon fill="white" stroke="none" points="-4,4 -4,-1420.44 1402.81,-1420.44 1402.81,4 -4,4"/>
<text xml:space="preserve" text-anchor="middle" x="699.4" y="-1397.24" font-family="Helvetica,sans-Serif" font-size="16.00">Codescry Integration Signals</text>
<g id="clust1" class="cluster">
<title>cluster_0</title>
<path fill="none" stroke="#64748b" stroke-dasharray="5,2" d="M409.13,-401.28C409.13,-401.28 651.13,-401.28 651.13,-401.28 657.13,-401.28 663.13,-407.28 663.13,-413.28 663.13,-413.28 663.13,-459.03 663.13,-459.03 663.13,-465.03 657.13,-471.03 651.13,-471.03 651.13,-471.03 409.13,-471.03 409.13,-471.03 403.13,-471.03 397.13,-465.03 397.13,-459.03 397.13,-459.03 397.13,-413.28 397.13,-413.28 397.13,-407.28 403.13,-401.28 409.13,-401.28"/>
<text xml:space="preserve" text-anchor="middle" x="530.13" y="-458.48" font-family="Helvetica,sans-Serif" font-size="9.00">/Users/asgupta/code/codescry/examples/classify_example.py</text>
</g>
<g id="clust2" class="cluster">
<title>cluster_1</title>
<path fill="none" stroke="#64748b" stroke-dasharray="5,2" d="M1009.61,-514.41C1009.61,-514.41 1251.61,-514.41 1251.61,-514.41 1257.61,-514.41 1263.61,-520.41 1263.61,-526.41 1263.61,-526.41 1263.61,-675.65 1263.61,-675.65 1263.61,-681.65 1257.61,-687.65 1251.61,-687.65 1251.61,-687.65 1009.61,-687.65 1009.61,-687.65 1003.61,-687.65 997.61,-681.65 997.61,-675.65 997.61,-675.65 997.61,-526.41 997.61,-526.41 997.61,-520.41 1003.61,-514.41 1009.61,-514.41"/>
<text xml:space="preserve" text-anchor="middle" x="1130.61" y="-675.1" font-family="Helvetica,sans-Serif" font-size="9.00">/Users/asgupta/code/codescry/examples/extract_java_flow.py</text>
</g>
<g id="clust3" class="cluster">
<title>cluster_2</title>
<path fill="none" stroke="#64748b" stroke-dasharray="5,2" d="M915.11,-161.94C915.11,-161.94 1147.11,-161.94 1147.11,-161.94 1153.11,-161.94 1159.11,-167.94 1159.11,-173.94 1159.11,-173.94 1159.11,-263.69 1159.11,-263.69 1159.11,-269.69 1153.11,-275.69 1147.11,-275.69 1147.11,-275.69 915.11,-275.69 915.11,-275.69 909.11,-275.69 903.11,-269.69 903.11,-263.69 903.11,-263.69 903.11,-173.94 903.11,-173.94 903.11,-167.94 909.11,-161.94 915.11,-161.94"/>
<text xml:space="preserve" text-anchor="middle" x="1031.11" y="-263.14" font-family="Helvetica,sans-Serif" font-size="9.00">/Users/asgupta/code/codescry/examples/goto_definition.py</text>
</g>
<g id="clust4" class="cluster">
<title>cluster_3</title>
<path fill="none" stroke="#64748b" stroke-dasharray="5,2" d="M764.53,-1240.35C764.53,-1240.35 1066.53,-1240.35 1066.53,-1240.35 1072.53,-1240.35 1078.53,-1246.35 1078.53,-1252.35 1078.53,-1252.35 1078.53,-1298.1 1078.53,-1298.1 1078.53,-1304.1 1072.53,-1310.1 1066.53,-1310.1 1066.53,-1310.1 764.53,-1310.1 764.53,-1310.1 758.53,-1310.1 752.53,-1304.1 752.53,-1298.1 752.53,-1298.1 752.53,-1252.35 752.53,-1252.35 752.53,-1246.35 758.53,-1240.35 764.53,-1240.35"/>
<text xml:space="preserve" text-anchor="middle" x="915.53" y="-1297.55" font-family="Helvetica,sans-Serif" font-size="9.00">/Users/asgupta/code/codescry/src/repo_surveyor/analysis_graph_builder.py</text>
</g>
<g id="clust5" class="cluster">
<title>cluster_4</title>
<path fill="none" stroke="#64748b" stroke-dasharray="5,2" d="M1107.81,-349.99C1107.81,-349.99 1386.81,-349.99 1386.81,-349.99 1392.81,-349.99 1398.81,-355.99 1398.81,-361.99 1398.81,-361.99 1398.81,-407.74 1398.81,-407.74 1398.81,-413.74 1392.81,-419.74 1386.81,-419.74 1386.81,-419.74 1107.81,-419.74 1107.81,-419.74 1101.81,-419.74 1095.81,-413.74 1095.81,-407.74 1095.81,-407.74 1095.81,-361.99 1095.81,-361.99 1095.81,-355.99 1101.81,-349.99 1107.81,-349.99"/>
<text xml:space="preserve" text-anchor="middle" x="1247.31" y="-407.19" font-family="Helvetica,sans-Serif" font-size="9.00">/Users/asgupta/code/codescry/src/repo_surveyor/call_flow/extractor.py</text>
</g>
<g id="clust6" class="cluster">
<title>cluster_5</title>
<path fill="none" stroke="#64748b" stroke-dasharray="5,2" d="M499.4,-526.65C499.4,-526.65 833.4,-526.65 833.4,-526.65 839.4,-526.65 845.4,-532.65 845.4,-538.65 845.4,-538.65 845.4,-584.4 845.4,-584.4 845.4,-590.4 839.4,-596.4 833.4,-596.4 833.4,-596.4 499.4,-596.4 499.4,-596.4 493.4,-596.4 487.4,-590.4 487.4,-584.4 487.4,-584.4 487.4,-538.65 487.4,-538.65 487.4,-532.65 493.4,-526.65 499.4,-526.65"/>
<text xml:space="preserve" text-anchor="middle" x="666.4" y="-583.85" font-family="Helvetica,sans-Serif" font-size="9.00">/Users/asgupta/code/codescry/src/repo_surveyor/integration_patterns/cobol/base.py</text>
</g>
<g id="clust7" class="cluster">
<title>cluster_6</title>
<path fill="none" stroke="#64748b" stroke-dasharray="5,2" d="M224.73,-926.9C224.73,-926.9 548.73,-926.9 548.73,-926.9 554.73,-926.9 560.73,-932.9 560.73,-938.9 560.73,-938.9 560.73,-984.65 560.73,-984.65 560.73,-990.65 554.73,-996.65 548.73,-996.65 548.73,-996.65 224.73,-996.65 224.73,-996.65 218.73,-996.65 212.73,-990.65 212.73,-984.65 212.73,-984.65 212.73,-938.9 212.73,-938.9 212.73,-932.9 218.73,-926.9 224.73,-926.9"/>
<text xml:space="preserve" text-anchor="middle" x="386.73" y="-984.1" font-family="Helvetica,sans-Serif" font-size="9.00">/Users/asgupta/code/codescry/src/repo_surveyor/integration_patterns/common.py</text>
</g>
<g id="clust8" class="cluster">
<title>cluster_7</title>
<path fill="none" stroke="#64748b" stroke-dasharray="5,2" d="M245.4,-1077.99C245.4,-1077.99 572.4,-1077.99 572.4,-1077.99 578.4,-1077.99 584.4,-1083.99 584.4,-1089.99 584.4,-1089.99 584.4,-1135.74 584.4,-1135.74 584.4,-1141.74 578.4,-1147.74 572.4,-1147.74 572.4,-1147.74 245.4,-1147.74 245.4,-1147.74 239.4,-1147.74 233.4,-1141.74 233.4,-1135.74 233.4,-1135.74 233.4,-1089.99 233.4,-1089.99 233.4,-1083.99 239.4,-1077.99 245.4,-1077.99"/>
<text xml:space="preserve" text-anchor="middle" x="408.9" y="-1135.19" font-family="Helvetica,sans-Serif" font-size="9.00">/Users/asgupta/code/codescry/src/repo_surveyor/integration_patterns/cpp/base.py</text>
</g>
<g id="clust9" class="cluster">
<title>cluster_8</title>
<path fill="none" stroke="#64748b" stroke-dasharray="5,2" d="M613.9,0C613.9,0 942.9,0 942.9,0 948.9,0 954.9,-6 954.9,-12 954.9,-12 954.9,-57.75 954.9,-57.75 954.9,-63.75 948.9,-69.75 942.9,-69.75 942.9,-69.75 613.9,-69.75 613.9,-69.75 607.9,-69.75 601.9,-63.75 601.9,-57.75 601.9,-57.75 601.9,-12 601.9,-12 601.9,-6 607.9,0 613.9,0"/>
<text xml:space="preserve" text-anchor="middle" x="778.4" y="-57.2" font-family="Helvetica,sans-Serif" font-size="9.00">/Users/asgupta/code/codescry/src/repo_surveyor/integration_patterns/cpp/boost.py</text>
</g>
<g id="clust10" class="cluster">
<title>cluster_9</title>
<path fill="none" stroke="#64748b" stroke-dasharray="5,2" d="M705.29,-789.17C705.29,-789.17 1032.29,-789.17 1032.29,-789.17 1038.29,-789.17 1044.29,-795.17 1044.29,-801.17 1044.29,-801.17 1044.29,-846.92 1044.29,-846.92 1044.29,-852.92 1038.29,-858.92 1032.29,-858.92 1032.29,-858.92 705.29,-858.92 705.29,-858.92 699.29,-858.92 693.29,-852.92 693.29,-846.92 693.29,-846.92 693.29,-801.17 693.29,-801.17 693.29,-795.17 699.29,-789.17 705.29,-789.17"/>
<text xml:space="preserve" text-anchor="middle" x="868.79" y="-846.37" font-family="Helvetica,sans-Serif" font-size="9.00">/Users/asgupta/code/codescry/src/repo_surveyor/integration_patterns/cpp/poco.py</text>
</g>
<g id="clust11" class="cluster">
<title>cluster_10</title>
<path fill="none" stroke="#64748b" stroke-dasharray="5,2" d="M890.18,-1011.16C890.18,-1011.16 1204.18,-1011.16 1204.18,-1011.16 1210.18,-1011.16 1216.18,-1017.16 1216.18,-1023.16 1216.18,-1023.16 1216.18,-1068.91 1216.18,-1068.91 1216.18,-1074.91 1210.18,-1080.91 1204.18,-1080.91 1204.18,-1080.91 890.18,-1080.91 890.18,-1080.91 884.18,-1080.91 878.18,-1074.91 878.18,-1068.91 878.18,-1068.91 878.18,-1023.16 878.18,-1023.16 878.18,-1017.16 884.18,-1011.16 890.18,-1011.16"/>
<text xml:space="preserve" text-anchor="middle" x="1047.18" y="-1068.36" font-family="Helvetica,sans-Serif" font-size="9.00">/Users/asgupta/code/codescry/src/repo_surveyor/integration_patterns/cpp/qt.py</text>
</g>
<g id="clust12" class="cluster">
<title>cluster_11</title>
<path fill="none" stroke="#64748b" stroke-dasharray="5,2" d="M12,-826.75C12,-826.75 382,-826.75 382,-826.75 388,-826.75 394,-832.75 394,-838.75 394,-838.75 394,-884.5 394,-884.5 394,-890.5 388,-896.5 382,-896.5 382,-896.5 12,-896.5 12,-896.5 6,-896.5 0,-890.5 0,-884.5 0,-884.5 0,-838.75 0,-838.75 0,-832.75 6,-826.75 12,-826.75"/>
<text xml:space="preserve" text-anchor="middle" x="197" y="-883.95" font-family="Helvetica,sans-Serif" font-size="9.00">/Users/asgupta/code/codescry/src/repo_surveyor/integration_patterns/csharp/aspnet_core.py</text>
</g>
<!-- sym_examples_classify_example_py_SAMPLES_variable_9 -->
<g id="node1" class="node">
<title>sym_examples_classify_example_py_SAMPLES_variable_9</title>
<path fill="#1e293b" stroke="black" d="M549.75,-445.28C549.75,-445.28 510.5,-445.28 510.5,-445.28 504.5,-445.28 498.5,-439.28 498.5,-433.28 498.5,-433.28 498.5,-421.28 498.5,-421.28 498.5,-415.28 504.5,-409.28 510.5,-409.28 510.5,-409.28 549.75,-409.28 549.75,-409.28 555.75,-409.28 561.75,-415.28 561.75,-421.28 561.75,-421.28 561.75,-433.28 561.75,-433.28 561.75,-439.28 555.75,-445.28 549.75,-445.28"/>
<text xml:space="preserve" text-anchor="middle" x="530.13" y="-429.03" font-family="Helvetica,sans-Serif" font-size="10.00" fill="#e2e8f0">SAMPLES</text>
<text xml:space="preserve" text-anchor="middle" x="530.13" y="-417.78" font-family="Helvetica,sans-Serif" font-size="10.00" fill="#e2e8f0">(variable)</text>
</g>
<!-- int_file_io -->
<g id="node16" class="node">
<title>int_file_io</title>
<ellipse fill="#0d9488" stroke="black" cx="962.57" cy="-551.03" rx="27" ry="18"/>
<text xml:space="preserve" text-anchor="middle" x="962.57" y="-547.16" font-family="Helvetica,sans-Serif" font-size="10.00" fill="white">file_io</text>
</g>
<!-- sym_examples_classify_example_py_SAMPLES_variable_9&#45;&#45;int_file_io -->
<g id="edge1" class="edge">
<title>sym_examples_classify_example_py_SAMPLES_variable_9&#45;&#45;int_file_io</title>
<path fill="none" stroke="#94a3b8" stroke-dasharray="5,2" d="M561.93,-436.38C644.24,-459.94 863.04,-522.55 937.42,-543.83"/>
<text xml:space="preserve" text-anchor="middle" x="746.65" y="-492.36" font-family="Helvetica,sans-Serif" font-size="8.00">low</text>
</g>
<!-- sym_examples_extract_java_flow_py_BRIDGE_URL_variable_21 -->
<g id="node2" class="node">
<title>sym_examples_extract_java_flow_py_BRIDGE_URL_variable_21</title>
<path fill="#1e293b" stroke="black" d="M1193.58,-617.9C1193.58,-617.9 1137.08,-617.9 1137.08,-617.9 1131.08,-617.9 1125.08,-611.9 1125.08,-605.9 1125.08,-605.9 1125.08,-593.9 1125.08,-593.9 1125.08,-587.9 1131.08,-581.9 1137.08,-581.9 1137.08,-581.9 1193.58,-581.9 1193.58,-581.9 1199.58,-581.9 1205.58,-587.9 1205.58,-593.9 1205.58,-593.9 1205.58,-605.9 1205.58,-605.9 1205.58,-611.9 1199.58,-617.9 1193.58,-617.9"/>
<text xml:space="preserve" text-anchor="middle" x="1165.33" y="-601.65" font-family="Helvetica,sans-Serif" font-size="10.00" fill="#e2e8f0">BRIDGE_URL</text>
<text xml:space="preserve" text-anchor="middle" x="1165.33" y="-590.4" font-family="Helvetica,sans-Serif" font-size="10.00" fill="#e2e8f0">(variable)</text>
</g>
<!-- int_http_rest -->
<g id="node17" class="node">
<title>int_http_rest</title>
<ellipse fill="#0d9488" stroke="black" cx="766.51" cy="-437.34" rx="32.1" ry="18"/>
<text xml:space="preserve" text-anchor="middle" x="766.51" y="-433.46" font-family="Helvetica,sans-Serif" font-size="10.00" fill="white">http_rest</text>
</g>
<!-- sym_examples_extract_java_flow_py_BRIDGE_URL_variable_21&#45;&#45;int_http_rest -->
<g id="edge2" class="edge">
<title>sym_examples_extract_java_flow_py_BRIDGE_URL_variable_21&#45;&#45;int_http_rest</title>
<path fill="none" stroke="#94a3b8" stroke-dasharray="5,2" d="M1124.61,-587.31C1102.87,-580.34 1075.76,-571.26 1051.94,-562.11 954.01,-524.47 840.59,-472.23 791.39,-449.13"/>
<text xml:space="preserve" text-anchor="middle" x="950.27" y="-524.53" font-family="Helvetica,sans-Serif" font-size="8.00">low</text>
</g>
<!-- sym_examples_extract_java_flow_py_FILE_URI_variable_24 -->
<g id="node3" class="node">
<title>sym_examples_extract_java_flow_py_FILE_URI_variable_24</title>
<path fill="#1e293b" stroke="black" d="M1161.46,-661.9C1161.46,-661.9 1125.21,-661.9 1125.21,-661.9 1119.21,-661.9 1113.21,-655.9 1113.21,-649.9 1113.21,-649.9 1113.21,-637.9 1113.21,-637.9 1113.21,-631.9 1119.21,-625.9 1125.21,-625.9 1125.21,-625.9 1161.46,-625.9 1161.46,-625.9 1167.46,-625.9 1173.46,-631.9 1173.46,-637.9 1173.46,-637.9 1173.46,-649.9 1173.46,-649.9 1173.46,-655.9 1167.46,-661.9 1161.46,-661.9"/>
<text xml:space="preserve" text-anchor="middle" x="1143.34" y="-645.65" font-family="Helvetica,sans-Serif" font-size="10.00" fill="#e2e8f0">FILE_URI</text>
<text xml:space="preserve" text-anchor="middle" x="1143.34" y="-634.4" font-family="Helvetica,sans-Serif" font-size="10.00" fill="#e2e8f0">(variable)</text>
</g>
<!-- sym_examples_extract_java_flow_py_FILE_URI_variable_24&#45;&#45;int_file_io -->
<g id="edge3" class="edge">
<title>sym_examples_extract_java_flow_py_FILE_URI_variable_24&#45;&#45;int_file_io</title>
<path fill="none" stroke="#94a3b8" stroke-dasharray="5,2" d="M1113.08,-628.36C1076.7,-609.67 1016.53,-578.75 984.39,-562.24"/>
<text xml:space="preserve" text-anchor="middle" x="1041.14" y="-595.88" font-family="Helvetica,sans-Serif" font-size="8.00">low</text>
</g>
<!-- sym_examples_extract_java_flow_py_main_function_29 -->
<g id="node4" class="node">
<title>sym_examples_extract_java_flow_py_main_function_29</title>
<path fill="#1e293b" stroke="black" d="M1100.14,-558.41C1100.14,-558.41 1067.64,-558.41 1067.64,-558.41 1061.64,-558.41 1055.64,-552.41 1055.64,-546.41 1055.64,-546.41 1055.64,-534.41 1055.64,-534.41 1055.64,-528.41 1061.64,-522.41 1067.64,-522.41 1067.64,-522.41 1100.14,-522.41 1100.14,-522.41 1106.14,-522.41 1112.14,-528.41 1112.14,-534.41 1112.14,-534.41 1112.14,-546.41 1112.14,-546.41 1112.14,-552.41 1106.14,-558.41 1100.14,-558.41"/>
<text xml:space="preserve" text-anchor="middle" x="1083.89" y="-542.16" font-family="Helvetica,sans-Serif" font-size="10.00" fill="#e2e8f0">main</text>
<text xml:space="preserve" text-anchor="middle" x="1083.89" y="-530.91" font-family="Helvetica,sans-Serif" font-size="10.00" fill="#e2e8f0">(function)</text>
</g>
<!-- sym_examples_extract_java_flow_py_main_function_29&#45;&#45;int_file_io -->
<g id="edge4" class="edge">
<title>sym_examples_extract_java_flow_py_main_function_29&#45;&#45;int_file_io</title>
<path fill="none" stroke="#94a3b8" stroke-dasharray="5,2" d="M1055.45,-542.9C1035.56,-544.64 1009.16,-546.95 989.59,-548.67"/>
<text xml:space="preserve" text-anchor="middle" x="1016.4" y="-547.19" font-family="Helvetica,sans-Serif" font-size="8.00">low</text>
</g>
<!-- sym_examples_goto_definition_py_BRIDGE_URL_variable_18 -->
<g id="node5" class="node">
<title>sym_examples_goto_definition_py_BRIDGE_URL_variable_18</title>
<path fill="#1e293b" stroke="black" d="M1000.09,-205.94C1000.09,-205.94 943.59,-205.94 943.59,-205.94 937.59,-205.94 931.59,-199.94 931.59,-193.94 931.59,-193.94 931.59,-181.94 931.59,-181.94 931.59,-175.94 937.59,-169.94 943.59,-169.94 943.59,-169.94 1000.09,-169.94 1000.09,-169.94 1006.09,-169.94 1012.09,-175.94 1012.09,-181.94 1012.09,-181.94 1012.09,-193.94 1012.09,-193.94 1012.09,-199.94 1006.09,-205.94 1000.09,-205.94"/>
<text xml:space="preserve" text-anchor="middle" x="971.84" y="-189.69" font-family="Helvetica,sans-Serif" font-size="10.00" fill="#e2e8f0">BRIDGE_URL</text>
<text xml:space="preserve" text-anchor="middle" x="971.84" y="-178.44" font-family="Helvetica,sans-Serif" font-size="10.00" fill="#e2e8f0">(variable)</text>
</g>
<!-- sym_examples_goto_definition_py_BRIDGE_URL_variable_18&#45;&#45;int_http_rest -->
<g id="edge5" class="edge">
<title>sym_examples_goto_definition_py_BRIDGE_URL_variable_18&#45;&#45;int_http_rest</title>
<path fill="none" stroke="#94a3b8" stroke-dasharray="5,2" d="M956.75,-206.27C918.31,-252.96 817.2,-375.77 780.27,-420.63"/>
<text xml:space="preserve" text-anchor="middle" x="861.94" y="-315.54" font-family="Helvetica,sans-Serif" font-size="8.00">low</text>
</g>
<!-- sym_examples_goto_definition_py_main_function_34 -->
<g id="node6" class="node">
<title>sym_examples_goto_definition_py_main_function_34</title>
<path fill="#1e293b" stroke="black" d="M1118.62,-249.94C1118.62,-249.94 1086.12,-249.94 1086.12,-249.94 1080.12,-249.94 1074.12,-243.94 1074.12,-237.94 1074.12,-237.94 1074.12,-225.94 1074.12,-225.94 1074.12,-219.94 1080.12,-213.94 1086.12,-213.94 1086.12,-213.94 1118.62,-213.94 1118.62,-213.94 1124.62,-213.94 1130.62,-219.94 1130.62,-225.94 1130.62,-225.94 1130.62,-237.94 1130.62,-237.94 1130.62,-243.94 1124.62,-249.94 1118.62,-249.94"/>
<text xml:space="preserve" text-anchor="middle" x="1102.37" y="-233.69" font-family="Helvetica,sans-Serif" font-size="10.00" fill="#e2e8f0">main</text>
<text xml:space="preserve" text-anchor="middle" x="1102.37" y="-222.44" font-family="Helvetica,sans-Serif" font-size="10.00" fill="#e2e8f0">(function)</text>
</g>
<!-- sym_examples_goto_definition_py_main_function_34&#45;&#45;int_file_io -->
<g id="edge6" class="edge">
<title>sym_examples_goto_definition_py_main_function_34&#45;&#45;int_file_io</title>
<path fill="none" stroke="#94a3b8" stroke-dasharray="5,2" d="M1094.45,-250.01C1069.79,-306.31 994.54,-478.07 970.23,-533.55"/>
<text xml:space="preserve" text-anchor="middle" x="1026.21" y="-393.49" font-family="Helvetica,sans-Serif" font-size="8.00">low</text>
</g>
<!-- sym_src_repo_surveyor_analysis_graph_builder_py_create_analysis_graph_builder_function_335 -->
<g id="node7" class="node">
<title>sym_src_repo_surveyor_analysis_graph_builder_py_create_analysis_graph_builder_function_335</title>
<path fill="#1e293b" stroke="black" d="M977.15,-1284.35C977.15,-1284.35 853.9,-1284.35 853.9,-1284.35 847.9,-1284.35 841.9,-1278.35 841.9,-1272.35 841.9,-1272.35 841.9,-1260.35 841.9,-1260.35 841.9,-1254.35 847.9,-1248.35 853.9,-1248.35 853.9,-1248.35 977.15,-1248.35 977.15,-1248.35 983.15,-1248.35 989.15,-1254.35 989.15,-1260.35 989.15,-1260.35 989.15,-1272.35 989.15,-1272.35 989.15,-1278.35 983.15,-1284.35 977.15,-1284.35"/>
<text xml:space="preserve" text-anchor="middle" x="915.53" y="-1268.1" font-family="Helvetica,sans-Serif" font-size="10.00" fill="#e2e8f0">create_analysis_graph_builder</text>
<text xml:space="preserve" text-anchor="middle" x="915.53" y="-1256.85" font-family="Helvetica,sans-Serif" font-size="10.00" fill="#e2e8f0">(function)</text>
</g>
<!-- int_database -->
<g id="node18" class="node">
<title>int_database</title>
<ellipse fill="#0d9488" stroke="black" cx="777.12" cy="-984.03" rx="32.99" ry="18"/>
<text xml:space="preserve" text-anchor="middle" x="777.12" y="-980.16" font-family="Helvetica,sans-Serif" font-size="10.00" fill="white">database</text>
</g>
<!-- sym_src_repo_surveyor_analysis_graph_builder_py_create_analysis_graph_builder_function_335&#45;&#45;int_database -->
<g id="edge7" class="edge">
<title>sym_src_repo_surveyor_analysis_graph_builder_py_create_analysis_graph_builder_function_335&#45;&#45;int_database</title>
<path fill="none" stroke="#0d9488" stroke-width="2" d="M906.66,-1248.26C881.6,-1197.15 810.49,-1052.09 785.74,-1001.61"/>
<text xml:space="preserve" text-anchor="middle" x="838.58" y="-1126.1" font-family="Helvetica,sans-Serif" font-size="8.00">high</text>
</g>
<!-- sym_src_repo_surveyor_call_flow_extractor_py__normalise_uri_function_61 -->
<g id="node8" class="node">
<title>sym_src_repo_surveyor_call_flow_extractor_py__normalise_uri_function_61</title>
<path fill="#1e293b" stroke="black" d="M1274.81,-393.99C1274.81,-393.99 1219.81,-393.99 1219.81,-393.99 1213.81,-393.99 1207.81,-387.99 1207.81,-381.99 1207.81,-381.99 1207.81,-369.99 1207.81,-369.99 1207.81,-363.99 1213.81,-357.99 1219.81,-357.99 1219.81,-357.99 1274.81,-357.99 1274.81,-357.99 1280.81,-357.99 1286.81,-363.99 1286.81,-369.99 1286.81,-369.99 1286.81,-381.99 1286.81,-381.99 1286.81,-387.99 1280.81,-393.99 1274.81,-393.99"/>
<text xml:space="preserve" text-anchor="middle" x="1247.31" y="-377.74" font-family="Helvetica,sans-Serif" font-size="10.00" fill="#e2e8f0">_normalise_uri</text>
<text xml:space="preserve" text-anchor="middle" x="1247.31" y="-366.49" font-family="Helvetica,sans-Serif" font-size="10.00" fill="#e2e8f0">(function)</text>
</g>
<!-- sym_src_repo_surveyor_call_flow_extractor_py__normalise_uri_function_61&#45;&#45;int_file_io -->
<g id="edge8" class="edge">
<title>sym_src_repo_surveyor_call_flow_extractor_py__normalise_uri_function_61&#45;&#45;int_file_io</title>
<path fill="none" stroke="#94a3b8" stroke-dasharray="5,2" d="M1217.37,-394.39C1159.12,-430.2 1031.91,-508.41 982.63,-538.7"/>
<text xml:space="preserve" text-anchor="middle" x="1090.63" y="-470.02" font-family="Helvetica,sans-Serif" font-size="8.00">low</text>
</g>
<!-- sym_src_repo_surveyor_integration_patterns_cobol_base_py_BASE_variable_5 -->
<g id="node9" class="node">
<title>sym_src_repo_surveyor_integration_patterns_cobol_base_py_BASE_variable_5</title>
<path fill="#1e293b" stroke="black" d="M682.28,-570.65C682.28,-570.65 650.53,-570.65 650.53,-570.65 644.53,-570.65 638.53,-564.65 638.53,-558.65 638.53,-558.65 638.53,-546.65 638.53,-546.65 638.53,-540.65 644.53,-534.65 650.53,-534.65 650.53,-534.65 682.28,-534.65 682.28,-534.65 688.28,-534.65 694.28,-540.65 694.28,-546.65 694.28,-546.65 694.28,-558.65 694.28,-558.65 694.28,-564.65 688.28,-570.65 682.28,-570.65"/>
<text xml:space="preserve" text-anchor="middle" x="666.4" y="-554.4" font-family="Helvetica,sans-Serif" font-size="10.00" fill="#e2e8f0">BASE</text>
<text xml:space="preserve" text-anchor="middle" x="666.4" y="-543.15" font-family="Helvetica,sans-Serif" font-size="10.00" fill="#e2e8f0">(variable)</text>
</g>
<!-- sym_src_repo_surveyor_integration_patterns_cobol_base_py_BASE_variable_5&#45;&#45;int_file_io -->
<g id="edge13" class="edge">
<title>sym_src_repo_surveyor_integration_patterns_cobol_base_py_BASE_variable_5&#45;&#45;int_file_io</title>
<path fill="none" stroke="#94a3b8" stroke-dasharray="5,2" d="M694.53,-552.5C751.42,-552.19 879.48,-551.49 935.49,-551.18"/>
<text xml:space="preserve" text-anchor="middle" x="809.34" y="-553.24" font-family="Helvetica,sans-Serif" font-size="8.00">low</text>
</g>
<!-- sym_src_repo_surveyor_integration_patterns_cobol_base_py_BASE_variable_5&#45;&#45;int_http_rest -->
<g id="edge10" class="edge">
<title>sym_src_repo_surveyor_integration_patterns_cobol_base_py_BASE_variable_5&#45;&#45;int_http_rest</title>
<path fill="none" stroke="#94a3b8" stroke-dasharray="5,2" d="M682.26,-534.38C701.56,-512.15 733.84,-474.97 752.34,-453.66"/>
<text xml:space="preserve" text-anchor="middle" x="711.6" y="-495.08" font-family="Helvetica,sans-Serif" font-size="8.00">low</text>
</g>
<!-- sym_src_repo_surveyor_integration_patterns_cobol_base_py_BASE_variable_5&#45;&#45;int_database -->
<g id="edge12" class="edge">
<title>sym_src_repo_surveyor_integration_patterns_cobol_base_py_BASE_variable_5&#45;&#45;int_database</title>
<path fill="none" stroke="#94a3b8" stroke-dasharray="5,2" d="M671.09,-570.91C689.2,-641.47 754.49,-895.86 772.49,-966.01"/>
<text xml:space="preserve" text-anchor="middle" x="715.83" y="-770.01" font-family="Helvetica,sans-Serif" font-size="8.00">low</text>
</g>
<!-- int_soap -->
<g id="node19" class="node">
<title>int_soap</title>
<ellipse fill="#0d9488" stroke="black" cx="444.24" cy="-668.97" rx="27" ry="18"/>
<text xml:space="preserve" text-anchor="middle" x="444.24" y="-665.09" font-family="Helvetica,sans-Serif" font-size="10.00" fill="white">soap</text>
</g>
<!-- sym_src_repo_surveyor_integration_patterns_cobol_base_py_BASE_variable_5&#45;&#45;int_soap -->
<g id="edge9" class="edge">
<title>sym_src_repo_surveyor_integration_patterns_cobol_base_py_BASE_variable_5&#45;&#45;int_soap</title>
<path fill="none" stroke="#f59e0b" d="M638.26,-567.38C593.31,-590.92 506.25,-636.5 465.83,-657.66"/>
<text xml:space="preserve" text-anchor="middle" x="536.1" y="-614.81" font-family="Helvetica,sans-Serif" font-size="8.00">medium</text>
</g>
<!-- int_socket -->
<g id="node20" class="node">
<title>int_socket</title>
<ellipse fill="#0d9488" stroke="black" cx="487.97" cy="-198.2" rx="27" ry="18"/>
<text xml:space="preserve" text-anchor="middle" x="487.97" y="-194.33" font-family="Helvetica,sans-Serif" font-size="10.00" fill="white">socket</text>
</g>
<!-- sym_src_repo_surveyor_integration_patterns_cobol_base_py_BASE_variable_5&#45;&#45;int_socket -->
<g id="edge11" class="edge">
<title>sym_src_repo_surveyor_integration_patterns_cobol_base_py_BASE_variable_5&#45;&#45;int_socket</title>
<path fill="none" stroke="#f59e0b" d="M657.31,-534.59C626.56,-473.5 526.71,-275.15 496.63,-215.39"/>
<text xml:space="preserve" text-anchor="middle" x="562.47" y="-375.89" font-family="Helvetica,sans-Serif" font-size="8.00">medium</text>
</g>
<!-- sym_src_repo_surveyor_integration_patterns_common_py_COMMON_variable_5 -->
<g id="node10" class="node">
<title>sym_src_repo_surveyor_integration_patterns_common_py_COMMON_variable_5</title>
<path fill="#1e293b" stroke="black" d="M405.98,-970.9C405.98,-970.9 367.48,-970.9 367.48,-970.9 361.48,-970.9 355.48,-964.9 355.48,-958.9 355.48,-958.9 355.48,-946.9 355.48,-946.9 355.48,-940.9 361.48,-934.9 367.48,-934.9 367.48,-934.9 405.98,-934.9 405.98,-934.9 411.98,-934.9 417.98,-940.9 417.98,-946.9 417.98,-946.9 417.98,-958.9 417.98,-958.9 417.98,-964.9 411.98,-970.9 405.98,-970.9"/>
<text xml:space="preserve" text-anchor="middle" x="386.73" y="-954.65" font-family="Helvetica,sans-Serif" font-size="10.00" fill="#e2e8f0">COMMON</text>
<text xml:space="preserve" text-anchor="middle" x="386.73" y="-943.4" font-family="Helvetica,sans-Serif" font-size="10.00" fill="#e2e8f0">(variable)</text>
</g>
<!-- sym_src_repo_surveyor_integration_patterns_common_py_COMMON_variable_5&#45;&#45;int_http_rest -->
<g id="edge14" class="edge">
<title>sym_src_repo_surveyor_integration_patterns_common_py_COMMON_variable_5&#45;&#45;int_http_rest</title>
<path fill="none" stroke="#94a3b8" stroke-dasharray="5,2" d="M404.2,-934.76C454.26,-882.18 600.89,-723.84 697.98,-574.35 724.2,-533.98 747.6,-482.2 759.06,-455.33"/>
<text xml:space="preserve" text-anchor="middle" x="593.9" y="-711.19" font-family="Helvetica,sans-Serif" font-size="8.00">low</text>
</g>
<!-- sym_src_repo_surveyor_integration_patterns_common_py_COMMON_variable_5&#45;&#45;int_database -->
<g id="edge17" class="edge">
<title>sym_src_repo_surveyor_integration_patterns_common_py_COMMON_variable_5&#45;&#45;int_database</title>
<path fill="none" stroke="#94a3b8" stroke-dasharray="5,2" d="M418.35,-955.42C491.14,-961.23 669.98,-975.49 744.11,-981.4"/>
<text xml:space="preserve" text-anchor="middle" x="574.73" y="-969.77" font-family="Helvetica,sans-Serif" font-size="8.00">low</text>
</g>
<!-- sym_src_repo_surveyor_integration_patterns_common_py_COMMON_variable_5&#45;&#45;int_soap -->
<g id="edge15" class="edge">
<title>sym_src_repo_surveyor_integration_patterns_common_py_COMMON_variable_5&#45;&#45;int_soap</title>
<path fill="none" stroke="#f59e0b" d="M390.42,-934.71C400.8,-883.42 430.23,-738.11 440.58,-687.01"/>
<text xml:space="preserve" text-anchor="middle" x="401.26" y="-812.19" font-family="Helvetica,sans-Serif" font-size="8.00">medium</text>
</g>
<!-- int_messaging -->
<g id="node21" class="node">
<title>int_messaging</title>
<ellipse fill="#0d9488" stroke="black" cx="316.23" cy="-1290.5" rx="37.42" ry="18"/>
<text xml:space="preserve" text-anchor="middle" x="316.23" y="-1286.63" font-family="Helvetica,sans-Serif" font-size="10.00" fill="white">messaging</text>
</g>
<!-- sym_src_repo_surveyor_integration_patterns_common_py_COMMON_variable_5&#45;&#45;int_messaging -->
<g id="edge16" class="edge">
<title>sym_src_repo_surveyor_integration_patterns_common_py_COMMON_variable_5&#45;&#45;int_messaging</title>
<path fill="none" stroke="#0d9488" stroke-width="2" d="M382.94,-971.05C370.7,-1029.67 332.3,-1213.52 320.04,-1272.26"/>
<text xml:space="preserve" text-anchor="middle" x="344" y="-1123.01" font-family="Helvetica,sans-Serif" font-size="8.00">high</text>
</g>
<!-- int_grpc -->
<g id="node22" class="node">
<title>int_grpc</title>
<ellipse fill="#0d9488" stroke="black" cx="215.22" cy="-1051.94" rx="27" ry="18"/>
<text xml:space="preserve" text-anchor="middle" x="215.22" y="-1048.06" font-family="Helvetica,sans-Serif" font-size="10.00" fill="white">grpc</text>
</g>
<!-- sym_src_repo_surveyor_integration_patterns_common_py_COMMON_variable_5&#45;&#45;int_grpc -->
<g id="edge18" class="edge">
<title>sym_src_repo_surveyor_integration_patterns_common_py_COMMON_variable_5&#45;&#45;int_grpc</title>
<path fill="none" stroke="#f59e0b" d="M355.27,-971.06C320.56,-991.11 265.67,-1022.81 235.97,-1039.96"/>
<text xml:space="preserve" text-anchor="middle" x="279.49" y="-1008" font-family="Helvetica,sans-Serif" font-size="8.00">medium</text>
</g>
<!-- int_graphql -->
<g id="node23" class="node">
<title>int_graphql</title>
<ellipse fill="#0d9488" stroke="black" cx="48.87" cy="-945.07" rx="28.11" ry="18"/>
<text xml:space="preserve" text-anchor="middle" x="48.87" y="-941.19" font-family="Helvetica,sans-Serif" font-size="10.00" fill="white">graphql</text>
</g>
<!-- sym_src_repo_surveyor_integration_patterns_common_py_COMMON_variable_5&#45;&#45;int_graphql -->
<g id="edge19" class="edge">
<title>sym_src_repo_surveyor_integration_patterns_common_py_COMMON_variable_5&#45;&#45;int_graphql</title>
<path fill="none" stroke="#94a3b8" stroke-dasharray="5,2" d="M355.25,-952.17C289.72,-950.65 139.58,-947.17 77.03,-945.72"/>
<text xml:space="preserve" text-anchor="middle" x="209.02" y="-941.32" font-family="Helvetica,sans-Serif" font-size="8.00">low</text>
</g>
<!-- int_email -->
<g id="node24" class="node">
<title>int_email</title>
<ellipse fill="#0d9488" stroke="black" cx="649.99" cy="-841.01" rx="27" ry="18"/>
<text xml:space="preserve" text-anchor="middle" x="649.99" y="-837.13" font-family="Helvetica,sans-Serif" font-size="10.00" fill="white">email</text>
</g>
<!-- sym_src_repo_surveyor_integration_patterns_common_py_COMMON_variable_5&#45;&#45;int_email -->
<g id="edge20" class="edge">
<title>sym_src_repo_surveyor_integration_patterns_common_py_COMMON_variable_5&#45;&#45;int_email</title>
<path fill="none" stroke="#94a3b8" stroke-dasharray="5,2" d="M418.22,-939.51C471.86,-916.72 579.71,-870.88 626.94,-850.8"/>
<text xml:space="preserve" text-anchor="middle" x="518.99" y="-895.54" font-family="Helvetica,sans-Serif" font-size="8.00">low</text>
</g>
<!-- int_caching -->
<g id="node25" class="node">
<title>int_caching</title>
<ellipse fill="#0d9488" stroke="black" cx="205.18" cy="-589.65" rx="29.44" ry="18"/>
<text xml:space="preserve" text-anchor="middle" x="205.18" y="-585.78" font-family="Helvetica,sans-Serif" font-size="10.00" fill="white">caching</text>
</g>
<!-- sym_src_repo_surveyor_integration_patterns_common_py_COMMON_variable_5&#45;&#45;int_caching -->
<g id="edge21" class="edge">
<title>sym_src_repo_surveyor_integration_patterns_common_py_COMMON_variable_5&#45;&#45;int_caching</title>
<path fill="none" stroke="#94a3b8" stroke-dasharray="5,2" d="M377.73,-934.89C346.68,-872.76 244.29,-667.9 213.82,-606.92"/>
<text xml:space="preserve" text-anchor="middle" x="289.56" y="-771.87" font-family="Helvetica,sans-Serif" font-size="8.00">low</text>
</g>
<!-- int_sse_streaming -->
<g id="node26" class="node">
<title>int_sse_streaming</title>
<ellipse fill="#0d9488" stroke="black" cx="578.79" cy="-1373.94" rx="47.19" ry="18"/>
<text xml:space="preserve" text-anchor="middle" x="578.79" y="-1370.07" font-family="Helvetica,sans-Serif" font-size="10.00" fill="white">sse_streaming</text>
</g>
<!-- sym_src_repo_surveyor_integration_patterns_common_py_COMMON_variable_5&#45;&#45;int_sse_streaming -->
<g id="edge22" class="edge">
<title>sym_src_repo_surveyor_integration_patterns_common_py_COMMON_variable_5&#45;&#45;int_sse_streaming</title>
<path fill="none" stroke="#94a3b8" stroke-dasharray="5,2" d="M395.11,-971.26C426.8,-1040.75 539.18,-1287.12 570.58,-1355.96"/>
<text xml:space="preserve" text-anchor="middle" x="476.95" y="-1165.25" font-family="Helvetica,sans-Serif" font-size="8.00">low</text>
</g>
<!-- int_scheduling -->
<g id="node27" class="node">
<title>int_scheduling</title>
<ellipse fill="#0d9488" stroke="black" cx="82.46" cy="-1270.65" rx="36.98" ry="18"/>
<text xml:space="preserve" text-anchor="middle" x="82.46" y="-1266.78" font-family="Helvetica,sans-Serif" font-size="10.00" fill="white">scheduling</text>
</g>
<!-- sym_src_repo_surveyor_integration_patterns_common_py_COMMON_variable_5&#45;&#45;int_scheduling -->
<g id="edge23" class="edge">
<title>sym_src_repo_surveyor_integration_patterns_common_py_COMMON_variable_5&#45;&#45;int_scheduling</title>
<path fill="none" stroke="#94a3b8" stroke-dasharray="5,2" d="M369.06,-971.36C314.64,-1028.18 150.21,-1199.9 98.32,-1254.09"/>
<text xml:space="preserve" text-anchor="middle" x="226.74" y="-1115.11" font-family="Helvetica,sans-Serif" font-size="8.00">low</text>
</g>
<!-- int_ftp_sftp -->
<g id="node28" class="node">
<title>int_ftp_sftp</title>
<ellipse fill="#0d9488" stroke="black" cx="711.96" cy="-1248.48" rx="28.99" ry="18"/>
<text xml:space="preserve" text-anchor="middle" x="711.96" y="-1244.61" font-family="Helvetica,sans-Serif" font-size="10.00" fill="white">ftp_sftp</text>
</g>
<!-- sym_src_repo_surveyor_integration_patterns_common_py_COMMON_variable_5&#45;&#45;int_ftp_sftp -->
<g id="edge24" class="edge">
<title>sym_src_repo_surveyor_integration_patterns_common_py_COMMON_variable_5&#45;&#45;int_ftp_sftp</title>
<path fill="none" stroke="#94a3b8" stroke-dasharray="5,2" d="M407.08,-971.39C466.73,-1025.61 640.46,-1183.5 695.22,-1233.27"/>
<text xml:space="preserve" text-anchor="middle" x="546.98" y="-1105.4" font-family="Helvetica,sans-Serif" font-size="8.00">low</text>
</g>
<!-- sym_src_repo_surveyor_integration_patterns_cpp_base_py_BASE_variable_5 -->
<g id="node11" class="node">
<title>sym_src_repo_surveyor_integration_patterns_cpp_base_py_BASE_variable_5</title>
<path fill="#1e293b" stroke="black" d="M424.78,-1121.99C424.78,-1121.99 393.03,-1121.99 393.03,-1121.99 387.03,-1121.99 381.03,-1115.99 381.03,-1109.99 381.03,-1109.99 381.03,-1097.99 381.03,-1097.99 381.03,-1091.99 387.03,-1085.99 393.03,-1085.99 393.03,-1085.99 424.78,-1085.99 424.78,-1085.99 430.78,-1085.99 436.78,-1091.99 436.78,-1097.99 436.78,-1097.99 436.78,-1109.99 436.78,-1109.99 436.78,-1115.99 430.78,-1121.99 424.78,-1121.99"/>
<text xml:space="preserve" text-anchor="middle" x="408.9" y="-1105.74" font-family="Helvetica,sans-Serif" font-size="10.00" fill="#e2e8f0">BASE</text>
<text xml:space="preserve" text-anchor="middle" x="408.9" y="-1094.49" font-family="Helvetica,sans-Serif" font-size="10.00" fill="#e2e8f0">(variable)</text>
</g>
<!-- sym_src_repo_surveyor_integration_patterns_cpp_base_py_BASE_variable_5&#45;&#45;int_database -->
<g id="edge25" class="edge">
<title>sym_src_repo_surveyor_integration_patterns_cpp_base_py_BASE_variable_5&#45;&#45;int_database</title>
<path fill="none" stroke="#94a3b8" stroke-dasharray="5,2" d="M437.18,-1094.78C505.64,-1072.48 679.67,-1015.78 748.49,-993.36"/>
<text xml:space="preserve" text-anchor="middle" x="586.7" y="-1045.51" font-family="Helvetica,sans-Serif" font-size="8.00">low</text>
</g>
<!-- sym_src_repo_surveyor_integration_patterns_cpp_base_py_BASE_variable_5&#45;&#45;int_soap -->
<g id="edge28" class="edge">
<title>sym_src_repo_surveyor_integration_patterns_cpp_base_py_BASE_variable_5&#45;&#45;int_soap</title>
<path fill="none" stroke="#f59e0b" d="M410.87,-1085.58C413.51,-1060.5 418.27,-1014.18 421.68,-974.6 431.08,-865.67 439.92,-734.68 443.05,-687.24"/>
<text xml:space="preserve" text-anchor="middle" x="414.6" y="-887.83" font-family="Helvetica,sans-Serif" font-size="8.00">medium</text>
</g>
<!-- sym_src_repo_surveyor_integration_patterns_cpp_base_py_BASE_variable_5&#45;&#45;int_messaging -->
<g id="edge26" class="edge">
<title>sym_src_repo_surveyor_integration_patterns_cpp_base_py_BASE_variable_5&#45;&#45;int_messaging</title>
<path fill="none" stroke="#0d9488" stroke-width="2" d="M399.85,-1122.22C382.04,-1158.06 342.66,-1237.3 325.05,-1272.75"/>
<text xml:space="preserve" text-anchor="middle" x="354.88" y="-1199.03" font-family="Helvetica,sans-Serif" font-size="8.00">high</text>
</g>
<!-- sym_src_repo_surveyor_integration_patterns_cpp_base_py_BASE_variable_5&#45;&#45;int_grpc -->
<g id="edge27" class="edge">
<title>sym_src_repo_surveyor_integration_patterns_cpp_base_py_BASE_variable_5&#45;&#45;int_grpc</title>
<path fill="none" stroke="#f59e0b" d="M380.74,-1096.42C343.08,-1086.3 276.86,-1068.5 240.64,-1058.77"/>
<text xml:space="preserve" text-anchor="middle" x="295.9" y="-1078.85" font-family="Helvetica,sans-Serif" font-size="8.00">medium</text>
</g>
<!-- sym_src_repo_surveyor_integration_patterns_cpp_base_py_BASE_variable_5&#45;&#45;int_graphql -->
<g id="edge30" class="edge">
<title>sym_src_repo_surveyor_integration_patterns_cpp_base_py_BASE_variable_5&#45;&#45;int_graphql</title>
<path fill="none" stroke="#94a3b8" stroke-dasharray="5,2" d="M380.65,-1091.52C311.69,-1061.08 135.76,-983.42 72.21,-955.37"/>
<text xml:space="preserve" text-anchor="middle" x="218.4" y="-1023.95" font-family="Helvetica,sans-Serif" font-size="8.00">low</text>
</g>
<!-- sym_src_repo_surveyor_integration_patterns_cpp_base_py_BASE_variable_5&#45;&#45;int_email -->
<g id="edge29" class="edge">
<title>sym_src_repo_surveyor_integration_patterns_cpp_base_py_BASE_variable_5&#45;&#45;int_email</title>
<path fill="none" stroke="#94a3b8" stroke-dasharray="5,2" d="M425.86,-1085.5C471.09,-1036.16 594.02,-902.06 635.84,-856.44"/>
<text xml:space="preserve" text-anchor="middle" x="526.13" y="-970.98" font-family="Helvetica,sans-Serif" font-size="8.00">low</text>
</g>
<!-- sym_src_repo_surveyor_integration_patterns_cpp_boost_py_FRAMEWORK_variable_5 -->
<g id="node12" class="node">
<title>sym_src_repo_surveyor_integration_patterns_cpp_boost_py_FRAMEWORK_variable_5</title>
<path fill="#1e293b" stroke="black" d="M807.78,-44C807.78,-44 749.03,-44 749.03,-44 743.03,-44 737.03,-38 737.03,-32 737.03,-32 737.03,-20 737.03,-20 737.03,-14 743.03,-8 749.03,-8 749.03,-8 807.78,-8 807.78,-8 813.78,-8 819.78,-14 819.78,-20 819.78,-20 819.78,-32 819.78,-32 819.78,-38 813.78,-44 807.78,-44"/>
<text xml:space="preserve" text-anchor="middle" x="778.4" y="-27.75" font-family="Helvetica,sans-Serif" font-size="10.00" fill="#e2e8f0">FRAMEWORK</text>
<text xml:space="preserve" text-anchor="middle" x="778.4" y="-16.5" font-family="Helvetica,sans-Serif" font-size="10.00" fill="#e2e8f0">(variable)</text>
</g>
<!-- sym_src_repo_surveyor_integration_patterns_cpp_boost_py_FRAMEWORK_variable_5&#45;&#45;int_http_rest -->
<g id="edge31" class="edge">
<title>sym_src_repo_surveyor_integration_patterns_cpp_boost_py_FRAMEWORK_variable_5&#45;&#45;int_http_rest</title>
<path fill="none" stroke="#94a3b8" stroke-dasharray="5,2" d="M777.87,-44.47C775.89,-112.79 769.02,-350.69 767.04,-418.92"/>
<text xml:space="preserve" text-anchor="middle" x="766.45" y="-233.13" font-family="Helvetica,sans-Serif" font-size="8.00">low</text>
</g>
<!-- sym_src_repo_surveyor_integration_patterns_cpp_boost_py_FRAMEWORK_variable_5&#45;&#45;int_socket -->
<g id="edge32" class="edge">
<title>sym_src_repo_surveyor_integration_patterns_cpp_boost_py_FRAMEWORK_variable_5&#45;&#45;int_socket</title>
<path fill="none" stroke="#f59e0b" d="M747.32,-44.43C687.62,-79.83 558.38,-156.46 508.34,-186.13"/>
<text xml:space="preserve" text-anchor="middle" x="609.95" y="-118.83" font-family="Helvetica,sans-Serif" font-size="8.00">medium</text>
</g>
<!-- sym_src_repo_surveyor_integration_patterns_cpp_poco_py_FRAMEWORK_variable_5 -->
<g id="node13" class="node">
<title>sym_src_repo_surveyor_integration_patterns_cpp_poco_py_FRAMEWORK_variable_5</title>
<path fill="#1e293b" stroke="black" d="M898.16,-833.17C898.16,-833.17 839.41,-833.17 839.41,-833.17 833.41,-833.17 827.41,-827.17 827.41,-821.17 827.41,-821.17 827.41,-809.17 827.41,-809.17 827.41,-803.17 833.41,-797.17 839.41,-797.17 839.41,-797.17 898.16,-797.17 898.16,-797.17 904.16,-797.17 910.16,-803.17 910.16,-809.17 910.16,-809.17 910.16,-821.17 910.16,-821.17 910.16,-827.17 904.16,-833.17 898.16,-833.17"/>
<text xml:space="preserve" text-anchor="middle" x="868.79" y="-816.92" font-family="Helvetica,sans-Serif" font-size="10.00" fill="#e2e8f0">FRAMEWORK</text>
<text xml:space="preserve" text-anchor="middle" x="868.79" y="-805.67" font-family="Helvetica,sans-Serif" font-size="10.00" fill="#e2e8f0">(variable)</text>
</g>
<!-- sym_src_repo_surveyor_integration_patterns_cpp_poco_py_FRAMEWORK_variable_5&#45;&#45;int_file_io -->
<g id="edge35" class="edge">
<title>sym_src_repo_surveyor_integration_patterns_cpp_poco_py_FRAMEWORK_variable_5&#45;&#45;int_file_io</title>
<path fill="none" stroke="#94a3b8" stroke-dasharray="5,2" d="M875.23,-797.01C892.41,-748.64 939.12,-617.08 956.21,-568.97"/>
<text xml:space="preserve" text-anchor="middle" x="909.75" y="-684.29" font-family="Helvetica,sans-Serif" font-size="8.00">low</text>
</g>
<!-- sym_src_repo_surveyor_integration_patterns_cpp_poco_py_FRAMEWORK_variable_5&#45;&#45;int_database -->
<g id="edge33" class="edge">
<title>sym_src_repo_surveyor_integration_patterns_cpp_poco_py_FRAMEWORK_variable_5&#45;&#45;int_database</title>
<path fill="none" stroke="#94a3b8" stroke-dasharray="5,2" d="M858.8,-833.56C841.03,-866.3 804.14,-934.26 786.68,-966.42"/>
<text xml:space="preserve" text-anchor="middle" x="816.63" y="-901.61" font-family="Helvetica,sans-Serif" font-size="8.00">low</text>
</g>
<!-- sym_src_repo_surveyor_integration_patterns_cpp_poco_py_FRAMEWORK_variable_5&#45;&#45;int_email -->
<g id="edge34" class="edge">
<title>sym_src_repo_surveyor_integration_patterns_cpp_poco_py_FRAMEWORK_variable_5&#45;&#45;int_email</title>
<path fill="none" stroke="#94a3b8" stroke-dasharray="5,2" d="M827.12,-820.09C782.98,-825.3 714.59,-833.38 677.01,-837.82"/>
<text xml:space="preserve" text-anchor="middle" x="743.6" y="-830.64" font-family="Helvetica,sans-Serif" font-size="8.00">low</text>
</g>
<!-- sym_src_repo_surveyor_integration_patterns_cpp_qt_py_FRAMEWORK_variable_5 -->
<g id="node14" class="node">
<title>sym_src_repo_surveyor_integration_patterns_cpp_qt_py_FRAMEWORK_variable_5</title>
<path fill="#1e293b" stroke="black" d="M1076.55,-1055.16C1076.55,-1055.16 1017.8,-1055.16 1017.8,-1055.16 1011.8,-1055.16 1005.8,-1049.16 1005.8,-1043.16 1005.8,-1043.16 1005.8,-1031.16 1005.8,-1031.16 1005.8,-1025.16 1011.8,-1019.16 1017.8,-1019.16 1017.8,-1019.16 1076.55,-1019.16 1076.55,-1019.16 1082.55,-1019.16 1088.55,-1025.16 1088.55,-1031.16 1088.55,-1031.16 1088.55,-1043.16 1088.55,-1043.16 1088.55,-1049.16 1082.55,-1055.16 1076.55,-1055.16"/>
<text xml:space="preserve" text-anchor="middle" x="1047.18" y="-1038.91" font-family="Helvetica,sans-Serif" font-size="10.00" fill="#e2e8f0">FRAMEWORK</text>
<text xml:space="preserve" text-anchor="middle" x="1047.18" y="-1027.66" font-family="Helvetica,sans-Serif" font-size="10.00" fill="#e2e8f0">(variable)</text>
</g>
<!-- sym_src_repo_surveyor_integration_patterns_cpp_qt_py_FRAMEWORK_variable_5&#45;&#45;int_database -->
<g id="edge36" class="edge">
<title>sym_src_repo_surveyor_integration_patterns_cpp_qt_py_FRAMEWORK_variable_5&#45;&#45;int_database</title>
<path fill="none" stroke="#94a3b8" stroke-dasharray="5,2" d="M1005.57,-1028.97C951.27,-1018.29 857.44,-999.83 808.65,-990.23"/>
<text xml:space="preserve" text-anchor="middle" x="899.05" y="-1010.6" font-family="Helvetica,sans-Serif" font-size="8.00">low</text>
</g>
<!-- sym_src_repo_surveyor_integration_patterns_csharp_aspnet_core_py_FRAMEWORK_variable_5 -->
<g id="node15" class="node">
<title>sym_src_repo_surveyor_integration_patterns_csharp_aspnet_core_py_FRAMEWORK_variable_5</title>
<path fill="#1e293b" stroke="black" d="M226.37,-870.75C226.37,-870.75 167.62,-870.75 167.62,-870.75 161.62,-870.75 155.62,-864.75 155.62,-858.75 155.62,-858.75 155.62,-846.75 155.62,-846.75 155.62,-840.75 161.62,-834.75 167.62,-834.75 167.62,-834.75 226.37,-834.75 226.37,-834.75 232.37,-834.75 238.37,-840.75 238.37,-846.75 238.37,-846.75 238.37,-858.75 238.37,-858.75 238.37,-864.75 232.37,-870.75 226.37,-870.75"/>
<text xml:space="preserve" text-anchor="middle" x="197" y="-854.5" font-family="Helvetica,sans-Serif" font-size="10.00" fill="#e2e8f0">FRAMEWORK</text>
<text xml:space="preserve" text-anchor="middle" x="197" y="-843.25" font-family="Helvetica,sans-Serif" font-size="10.00" fill="#e2e8f0">(variable)</text>
</g>
<!-- sym_src_repo_surveyor_integration_patterns_csharp_aspnet_core_py_FRAMEWORK_variable_5&#45;&#45;int_database -->
<g id="edge37" class="edge">
<title>sym_src_repo_surveyor_integration_patterns_csharp_aspnet_core_py_FRAMEWORK_variable_5&#45;&#45;int_database</title>
<path fill="none" stroke="#94a3b8" stroke-dasharray="5,2" d="M238.72,-862.19C349.52,-887.27 649.32,-955.11 746.36,-977.07"/>
<text xml:space="preserve" text-anchor="middle" x="491.7" y="-922.2" font-family="Helvetica,sans-Serif" font-size="8.00">low</text>
</g>
<!-- sym_src_repo_surveyor_integration_patterns_csharp_aspnet_core_py_FRAMEWORK_variable_5&#45;&#45;int_grpc -->
<g id="edge38" class="edge">
<title>sym_src_repo_surveyor_integration_patterns_csharp_aspnet_core_py_FRAMEWORK_variable_5&#45;&#45;int_grpc</title>
<path fill="none" stroke="#f59e0b" d="M198.68,-871.13C202.15,-909.08 210.08,-995.69 213.55,-1033.6"/>
<text xml:space="preserve" text-anchor="middle" x="191.87" y="-953.78" font-family="Helvetica,sans-Serif" font-size="8.00">medium</text>
</g>
<!-- sym_src_repo_surveyor_integration_patterns_csharp_aspnet_core_py_FRAMEWORK_variable_5&#45;&#45;int_graphql -->
<g id="edge39" class="edge">
<title>sym_src_repo_surveyor_integration_patterns_csharp_aspnet_core_py_FRAMEWORK_variable_5&#45;&#45;int_graphql</title>
<path fill="none" stroke="#94a3b8" stroke-dasharray="5,2" d="M167.38,-871.21C138.34,-889.31 94.82,-916.43 69.39,-932.28"/>
<text xml:space="preserve" text-anchor="middle" x="111.03" y="-903.99" font-family="Helvetica,sans-Serif" font-size="8.00">low</text>
</g>
</g>
</svg>
