<?xml version="1.0" encoding="UTF-8" standalone="no"?>
<!DOCTYPE svg PUBLIC "-//W3C//DTD SVG 1.1//EN"
 "http://www.w3.org/Graphics/SVG/1.1/DTD/svg11.dtd">
<!-- Generated by graphviz version 13.0.1 (20250615.1724)
 -->
<!-- Title: Codescry Integration Signals Pages: 1 -->
<svg width="702pt" height="1704pt"
 viewBox="0.00 0.00 702.00 1704.00" xmlns="http://www.w3.org/2000/svg" xmlns:xlink="http://www.w3.org/1999/xlink">
<g id="graph0" class="graph" transform="scale(1 1) rotate(0) translate(4 1699.88)">
<title>Codescry Integration Signals</title>
<polygon fill="white" stroke="none" points="-4,4 -4,-1699.88 698.39,-1699.88 698.39,4 -4,4"/>
<text xml:space="preserve" text-anchor="middle" x="347.19" y="-7.2" font-family="Times,serif" font-size="14.00">Codescry Integration Signals</text>
<g id="clust1" class="cluster">
<title>cluster_0</title>
<polygon fill="none" stroke="black" stroke-dasharray="5,2" points="83.25,-1525.88 83.25,-1602.88 451,-1602.88 451,-1525.88 83.25,-1525.88"/>
<text xml:space="preserve" text-anchor="middle" x="267.12" y="-1585.58" font-family="Times,serif" font-size="14.00">/Users/asgupta/code/cartographer/examples/classify_example.py</text>
</g>
<g id="clust2" class="cluster">
<title>cluster_1</title>
<polygon fill="none" stroke="black" stroke-dasharray="5,2" points="82.12,-1193.88 82.12,-1378.88 452.12,-1378.88 452.12,-1193.88 82.12,-1193.88"/>
<text xml:space="preserve" text-anchor="middle" x="267.12" y="-1361.58" font-family="Times,serif" font-size="14.00">/Users/asgupta/code/cartographer/examples/extract_java_flow.py</text>
</g>
<g id="clust3" class="cluster">
<title>cluster_2</title>
<polygon fill="none" stroke="black" stroke-dasharray="5,2" points="88.88,-1386.88 88.88,-1517.88 445.37,-1517.88 445.37,-1386.88 88.88,-1386.88"/>
<text xml:space="preserve" text-anchor="middle" x="267.12" y="-1500.58" font-family="Times,serif" font-size="14.00">/Users/asgupta/code/cartographer/examples/goto_definition.py</text>
</g>
<g id="clust4" class="cluster">
<title>cluster_3</title>
<polygon fill="none" stroke="black" stroke-dasharray="5,2" points="45,-317.88 45,-394.88 489.25,-394.88 489.25,-317.88 45,-317.88"/>
<text xml:space="preserve" text-anchor="middle" x="267.12" y="-377.58" font-family="Times,serif" font-size="14.00">/Users/asgupta/code/cartographer/src/repo_surveyor/analysis_graph_builder.py</text>
</g>
<g id="clust5" class="cluster">
<title>cluster_4</title>
<polygon fill="none" stroke="black" stroke-dasharray="5,2" points="56.62,-1610.88 56.62,-1687.88 477.62,-1687.88 477.62,-1610.88 56.62,-1610.88"/>
<text xml:space="preserve" text-anchor="middle" x="267.12" y="-1670.58" font-family="Times,serif" font-size="14.00">/Users/asgupta/code/cartographer/src/repo_surveyor/call_flow/extractor.py</text>
</g>
<g id="clust6" class="cluster">
<title>cluster_5</title>
<polygon fill="none" stroke="black" stroke-dasharray="5,2" points="22.88,-1000.88 22.88,-1077.88 511.37,-1077.88 511.37,-1000.88 22.88,-1000.88"/>
<text xml:space="preserve" text-anchor="middle" x="267.12" y="-1060.58" font-family="Times,serif" font-size="14.00">/Users/asgupta/code/cartographer/src/repo_surveyor/integration_patterns/cobol/base.py</text>
</g>
<g id="clust7" class="cluster">
<title>cluster_6</title>
<polygon fill="none" stroke="black" stroke-dasharray="5,2" points="27.38,-680.88 27.38,-757.88 506.87,-757.88 506.87,-680.88 27.38,-680.88"/>
<text xml:space="preserve" text-anchor="middle" x="267.12" y="-740.58" font-family="Times,serif" font-size="14.00">/Users/asgupta/code/cartographer/src/repo_surveyor/integration_patterns/common.py</text>
</g>
<g id="clust8" class="cluster">
<title>cluster_7</title>
<polygon fill="none" stroke="black" stroke-dasharray="5,2" points="28.12,-402.88 28.12,-479.88 506.12,-479.88 506.12,-402.88 28.12,-402.88"/>
<text xml:space="preserve" text-anchor="middle" x="267.12" y="-462.58" font-family="Times,serif" font-size="14.00">/Users/asgupta/code/cartographer/src/repo_surveyor/integration_patterns/cpp/base.py</text>
</g>
<g id="clust9" class="cluster">
<title>cluster_8</title>
<polygon fill="none" stroke="black" stroke-dasharray="5,2" points="25.5,-1096.88 25.5,-1173.88 508.75,-1173.88 508.75,-1096.88 25.5,-1096.88"/>
<text xml:space="preserve" text-anchor="middle" x="267.12" y="-1156.58" font-family="Times,serif" font-size="14.00">/Users/asgupta/code/cartographer/src/repo_surveyor/integration_patterns/cpp/boost.py</text>
</g>
<g id="clust10" class="cluster">
<title>cluster_9</title>
<polygon fill="none" stroke="black" stroke-dasharray="5,2" points="27,-880.88 27,-957.88 507.25,-957.88 507.25,-880.88 27,-880.88"/>
<text xml:space="preserve" text-anchor="middle" x="267.12" y="-940.58" font-family="Times,serif" font-size="14.00">/Users/asgupta/code/cartographer/src/repo_surveyor/integration_patterns/cpp/poco.py</text>
</g>
<g id="clust11" class="cluster">
<title>cluster_10</title>
<polygon fill="none" stroke="black" stroke-dasharray="5,2" points="34.88,-232.88 34.88,-309.88 499.37,-309.88 499.37,-232.88 34.88,-232.88"/>
<text xml:space="preserve" text-anchor="middle" x="267.12" y="-292.58" font-family="Times,serif" font-size="14.00">/Users/asgupta/code/cartographer/src/repo_surveyor/integration_patterns/cpp/qt.py</text>
</g>
<g id="clust12" class="cluster">
<title>cluster_11</title>
<polygon fill="none" stroke="black" stroke-dasharray="5,2" points="0,-120.88 0,-197.88 534.25,-197.88 534.25,-120.88 0,-120.88"/>
<text xml:space="preserve" text-anchor="middle" x="267.12" y="-180.58" font-family="Times,serif" font-size="14.00">/Users/asgupta/code/cartographer/src/repo_surveyor/integration_patterns/csharp/aspnet_core.py</text>
</g>
<!-- sym_examples_classify_example_py_SAMPLES_variable_9 -->
<g id="node1" class="node">
<title>sym_examples_classify_example_py_SAMPLES_variable_9</title>
<polygon fill="none" stroke="black" points="296.75,-1569.88 236.5,-1569.88 236.5,-1533.88 296.75,-1533.88 296.75,-1569.88"/>
<text xml:space="preserve" text-anchor="middle" x="266.62" y="-1553.63" font-family="Times,serif" font-size="10.00">SAMPLES</text>
<text xml:space="preserve" text-anchor="middle" x="266.62" y="-1542.38" font-family="Times,serif" font-size="10.00">(variable)</text>
</g>
<!-- int_file_io -->
<g id="node16" class="node">
<title>int_file_io</title>
<ellipse fill="none" stroke="black" cx="651.19" cy="-1426.88" rx="27" ry="18"/>
<text xml:space="preserve" text-anchor="middle" x="651.19" y="-1423" font-family="Times,serif" font-size="10.00">file_io</text>
</g>
<!-- sym_examples_classify_example_py_SAMPLES_variable_9&#45;&gt;int_file_io -->
<g id="edge1" class="edge">
<title>sym_examples_classify_example_py_SAMPLES_variable_9&#45;&gt;int_file_io</title>
<path fill="none" stroke="black" d="M296.99,-1553.86C347.59,-1556.14 453.56,-1555.92 534.25,-1521.88 572.14,-1505.89 607.43,-1473.44 628.89,-1450.95"/>
<polygon fill="black" stroke="black" points="631.4,-1453.39 635.65,-1443.68 626.28,-1448.62 631.4,-1453.39"/>
<text xml:space="preserve" text-anchor="middle" x="567.12" y="-1519.97" font-family="Times,serif" font-size="14.00">low</text>
</g>
<!-- sym_examples_extract_java_flow_py_BRIDGE_URL_variable_21 -->
<g id="node2" class="node">
<title>sym_examples_extract_java_flow_py_BRIDGE_URL_variable_21</title>
<polygon fill="none" stroke="black" points="306.12,-1237.88 227.12,-1237.88 227.12,-1201.88 306.12,-1201.88 306.12,-1237.88"/>
<text xml:space="preserve" text-anchor="middle" x="266.62" y="-1221.63" font-family="Times,serif" font-size="10.00">BRIDGE_URL</text>
<text xml:space="preserve" text-anchor="middle" x="266.62" y="-1210.38" font-family="Times,serif" font-size="10.00">(variable)</text>
</g>
<!-- int_http_rest -->
<g id="node17" class="node">
<title>int_http_rest</title>
<ellipse fill="none" stroke="black" cx="651.19" cy="-1266.88" rx="30.77" ry="18"/>
<text xml:space="preserve" text-anchor="middle" x="651.19" y="-1263" font-family="Times,serif" font-size="10.00">http_rest</text>
</g>
<!-- sym_examples_extract_java_flow_py_BRIDGE_URL_variable_21&#45;&gt;int_http_rest -->
<g id="edge2" class="edge">
<title>sym_examples_extract_java_flow_py_BRIDGE_URL_variable_21&#45;&gt;int_http_rest</title>
<path fill="none" stroke="black" d="M306.39,-1211.38C363.46,-1201.32 470.23,-1192.16 534.25,-1246.88 547.53,-1258.22 530.42,-1274.21 544.25,-1284.88 565.17,-1301 595.35,-1293.79 618.16,-1284.11"/>
<polygon fill="black" stroke="black" points="619.37,-1287.41 626.99,-1280.05 616.45,-1281.05 619.37,-1287.41"/>
<text xml:space="preserve" text-anchor="middle" x="567.12" y="-1297.59" font-family="Times,serif" font-size="14.00">low</text>
</g>
<!-- sym_examples_extract_java_flow_py_FILE_URI_variable_24 -->
<g id="node3" class="node">
<title>sym_examples_extract_java_flow_py_FILE_URI_variable_24</title>
<polygon fill="none" stroke="black" points="296,-1291.88 237.25,-1291.88 237.25,-1255.88 296,-1255.88 296,-1291.88"/>
<text xml:space="preserve" text-anchor="middle" x="266.62" y="-1275.63" font-family="Times,serif" font-size="10.00">FILE_URI</text>
<text xml:space="preserve" text-anchor="middle" x="266.62" y="-1264.38" font-family="Times,serif" font-size="10.00">(variable)</text>
</g>
<!-- sym_examples_extract_java_flow_py_FILE_URI_variable_24&#45;&gt;int_file_io -->
<g id="edge3" class="edge">
<title>sym_examples_extract_java_flow_py_FILE_URI_variable_24&#45;&gt;int_file_io</title>
<path fill="none" stroke="black" d="M296.28,-1266.76C350.62,-1255.13 469.06,-1239.12 534.25,-1300.88 555.15,-1320.67 526.57,-1342.16 544.25,-1364.88 557.83,-1382.32 570.7,-1373.61 590,-1384.38 601.51,-1390.8 613.51,-1398.94 623.74,-1406.37"/>
<polygon fill="black" stroke="black" points="621.6,-1409.14 631.72,-1412.3 625.78,-1403.52 621.6,-1409.14"/>
<text xml:space="preserve" text-anchor="middle" x="567.12" y="-1387.58" font-family="Times,serif" font-size="14.00">low</text>
</g>
<!-- sym_examples_extract_java_flow_py_main_function_29 -->
<g id="node4" class="node">
<title>sym_examples_extract_java_flow_py_main_function_29</title>
<polygon fill="none" stroke="black" points="294.87,-1345.88 238.37,-1345.88 238.37,-1309.88 294.87,-1309.88 294.87,-1345.88"/>
<text xml:space="preserve" text-anchor="middle" x="266.62" y="-1329.63" font-family="Times,serif" font-size="10.00">main</text>
<text xml:space="preserve" text-anchor="middle" x="266.62" y="-1318.38" font-family="Times,serif" font-size="10.00">(function)</text>
</g>
<!-- sym_examples_extract_java_flow_py_main_function_29&#45;&gt;int_file_io -->
<g id="edge4" class="edge">
<title>sym_examples_extract_java_flow_py_main_function_29&#45;&gt;int_file_io</title>
<path fill="none" stroke="black" d="M295.17,-1325.89C347.62,-1323.6 462.97,-1325.96 534.25,-1382.88 542.64,-1389.58 535.86,-1398.17 544.25,-1404.88 563.4,-1420.19 590.57,-1425.61 612.6,-1427.24"/>
<polygon fill="black" stroke="black" points="612.23,-1430.72 622.39,-1427.71 612.57,-1423.73 612.23,-1430.72"/>
<text xml:space="preserve" text-anchor="middle" x="567.12" y="-1427.32" font-family="Times,serif" font-size="14.00">low</text>
</g>
<!-- sym_examples_goto_definition_py_BRIDGE_URL_variable_18 -->
<g id="node5" class="node">
<title>sym_examples_goto_definition_py_BRIDGE_URL_variable_18</title>
<polygon fill="none" stroke="black" points="306.12,-1430.88 227.12,-1430.88 227.12,-1394.88 306.12,-1394.88 306.12,-1430.88"/>
<text xml:space="preserve" text-anchor="middle" x="266.62" y="-1414.63" font-family="Times,serif" font-size="10.00">BRIDGE_URL</text>
<text xml:space="preserve" text-anchor="middle" x="266.62" y="-1403.38" font-family="Times,serif" font-size="10.00">(variable)</text>
</g>
<!-- sym_examples_goto_definition_py_BRIDGE_URL_variable_18&#45;&gt;int_http_rest -->
<g id="edge5" class="edge">
<title>sym_examples_goto_definition_py_BRIDGE_URL_variable_18&#45;&gt;int_http_rest</title>
<path fill="none" stroke="black" d="M306.27,-1420.65C363.19,-1429.71 469.78,-1437.21 534.25,-1382.88 546.46,-1372.59 535.1,-1361.46 544.25,-1348.38 558.7,-1327.73 569.98,-1330.18 590,-1314.88 601.17,-1306.34 613.32,-1296.71 623.77,-1288.33"/>
<polygon fill="black" stroke="black" points="625.66,-1291.3 631.26,-1282.3 621.27,-1285.85 625.66,-1291.3"/>
<text xml:space="preserve" text-anchor="middle" x="567.12" y="-1351.58" font-family="Times,serif" font-size="14.00">low</text>
</g>
<!-- sym_examples_goto_definition_py_main_function_34 -->
<g id="node6" class="node">
<title>sym_examples_goto_definition_py_main_function_34</title>
<polygon fill="none" stroke="black" points="294.87,-1484.88 238.37,-1484.88 238.37,-1448.88 294.87,-1448.88 294.87,-1484.88"/>
<text xml:space="preserve" text-anchor="middle" x="266.62" y="-1468.63" font-family="Times,serif" font-size="10.00">main</text>
<text xml:space="preserve" text-anchor="middle" x="266.62" y="-1457.38" font-family="Times,serif" font-size="10.00">(function)</text>
</g>
<!-- sym_examples_goto_definition_py_main_function_34&#45;&gt;int_file_io -->
<g id="edge6" class="edge">
<title>sym_examples_goto_definition_py_main_function_34&#45;&gt;int_file_io</title>
<path fill="none" stroke="black" d="M295.05,-1467.05C350.99,-1466.95 482.09,-1464.44 590,-1444.88 598.49,-1443.34 607.47,-1441.03 615.84,-1438.58"/>
<polygon fill="black" stroke="black" points="616.79,-1441.95 625.31,-1435.65 614.73,-1435.26 616.79,-1441.95"/>
<text xml:space="preserve" text-anchor="middle" x="567.12" y="-1454.92" font-family="Times,serif" font-size="14.00">low</text>
</g>
<!-- sym_src_repo_surveyor_analysis_graph_builder_py_create_analysis_graph_builder_function_335 -->
<g id="node7" class="node">
<title>sym_src_repo_surveyor_analysis_graph_builder_py_create_analysis_graph_builder_function_335</title>
<polygon fill="none" stroke="black" points="337.25,-361.88 196,-361.88 196,-325.88 337.25,-325.88 337.25,-361.88"/>
<text xml:space="preserve" text-anchor="middle" x="266.62" y="-345.63" font-family="Times,serif" font-size="10.00">create_analysis_graph_builder</text>
<text xml:space="preserve" text-anchor="middle" x="266.62" y="-334.38" font-family="Times,serif" font-size="10.00">(function)</text>
</g>
<!-- int_database -->
<g id="node18" class="node">
<title>int_database</title>
<ellipse fill="none" stroke="black" cx="651.19" cy="-386.88" rx="30.32" ry="18"/>
<text xml:space="preserve" text-anchor="middle" x="651.19" y="-383" font-family="Times,serif" font-size="10.00">database</text>
</g>
<!-- sym_src_repo_surveyor_analysis_graph_builder_py_create_analysis_graph_builder_function_335&#45;&gt;int_database -->
<g id="edge7" class="edge">
<title>sym_src_repo_surveyor_analysis_graph_builder_py_create_analysis_graph_builder_function_335&#45;&gt;int_database</title>
<path fill="none" stroke="black" d="M337.57,-339.69C403.61,-337.5 504.92,-338.71 590,-359.38 599.52,-361.69 609.39,-365.51 618.3,-369.59"/>
<polygon fill="black" stroke="black" points="616.74,-372.72 627.26,-373.93 619.79,-366.42 616.74,-372.72"/>
<text xml:space="preserve" text-anchor="middle" x="567.12" y="-362.58" font-family="Times,serif" font-size="14.00">high</text>
</g>
<!-- sym_src_repo_surveyor_call_flow_extractor_py__normalise_uri_function_61 -->
<g id="node8" class="node">
<title>sym_src_repo_surveyor_call_flow_extractor_py__normalise_uri_function_61</title>
<polygon fill="none" stroke="black" points="305.37,-1654.88 227.87,-1654.88 227.87,-1618.88 305.37,-1618.88 305.37,-1654.88"/>
<text xml:space="preserve" text-anchor="middle" x="266.62" y="-1638.63" font-family="Times,serif" font-size="10.00">_normalise_uri</text>
<text xml:space="preserve" text-anchor="middle" x="266.62" y="-1627.38" font-family="Times,serif" font-size="10.00">(function)</text>
</g>
<!-- sym_src_repo_surveyor_call_flow_extractor_py__normalise_uri_function_61&#45;&gt;int_file_io -->
<g id="edge8" class="edge">
<title>sym_src_repo_surveyor_call_flow_extractor_py__normalise_uri_function_61&#45;&gt;int_file_io</title>
<path fill="none" stroke="black" d="M305.67,-1641.32C360,-1645.82 461.28,-1647.23 534.25,-1606.88 593.27,-1574.24 626.87,-1497.44 641.44,-1455.48"/>
<polygon fill="black" stroke="black" points="644.73,-1456.66 644.57,-1446.07 638.09,-1454.45 644.73,-1456.66"/>
<text xml:space="preserve" text-anchor="middle" x="567.12" y="-1600.88" font-family="Times,serif" font-size="14.00">low</text>
</g>
<!-- sym_src_repo_surveyor_integration_patterns_cobol_base_py_BASE_variable_5 -->
<g id="node9" class="node">
<title>sym_src_repo_surveyor_integration_patterns_cobol_base_py_BASE_variable_5</title>
<polygon fill="none" stroke="black" points="294.12,-1044.88 239.12,-1044.88 239.12,-1008.88 294.12,-1008.88 294.12,-1044.88"/>
<text xml:space="preserve" text-anchor="middle" x="266.62" y="-1028.63" font-family="Times,serif" font-size="10.00">BASE</text>
<text xml:space="preserve" text-anchor="middle" x="266.62" y="-1017.38" font-family="Times,serif" font-size="10.00">(variable)</text>
</g>
<!-- sym_src_repo_surveyor_integration_patterns_cobol_base_py_BASE_variable_5&#45;&gt;int_file_io -->
<g id="edge13" class="edge">
<title>sym_src_repo_surveyor_integration_patterns_cobol_base_py_BASE_variable_5&#45;&gt;int_file_io</title>
<path fill="none" stroke="black" d="M294.26,-1024.38C348.82,-1020.92 473.27,-1021.73 534.25,-1092.88 550.51,-1111.85 529.56,-1184.66 544.25,-1204.88 557.24,-1222.76 575.58,-1207.62 590,-1224.38 610.81,-1248.56 599.17,-1263.21 608,-1293.88 618.45,-1330.17 631.82,-1371.6 640.68,-1398.43"/>
<polygon fill="black" stroke="black" points="637.35,-1399.5 643.82,-1407.89 643.99,-1397.3 637.35,-1399.5"/>
<text xml:space="preserve" text-anchor="middle" x="567.12" y="-1227.58" font-family="Times,serif" font-size="14.00">low</text>
</g>
<!-- sym_src_repo_surveyor_integration_patterns_cobol_base_py_BASE_variable_5&#45;&gt;int_http_rest -->
<g id="edge10" class="edge">
<title>sym_src_repo_surveyor_integration_patterns_cobol_base_py_BASE_variable_5&#45;&gt;int_http_rest</title>
<path fill="none" stroke="black" d="M294.29,-1025.47C347.29,-1024.2 466.55,-1029.13 534.25,-1092.88 545.1,-1103.09 534.66,-1113.47 544.25,-1124.88 558.97,-1142.37 573.87,-1132.18 590,-1148.38 615.38,-1173.87 632.18,-1212.27 641.43,-1238.4"/>
<polygon fill="black" stroke="black" points="638.04,-1239.32 644.56,-1247.67 644.68,-1237.08 638.04,-1239.32"/>
<text xml:space="preserve" text-anchor="middle" x="567.12" y="-1151.58" font-family="Times,serif" font-size="14.00">low</text>
</g>
<!-- sym_src_repo_surveyor_integration_patterns_cobol_base_py_BASE_variable_5&#45;&gt;int_database -->
<g id="edge12" class="edge">
<title>sym_src_repo_surveyor_integration_patterns_cobol_base_py_BASE_variable_5&#45;&gt;int_database</title>
<path fill="none" stroke="black" d="M294.5,-1029.69C349.5,-1033.77 474.74,-1034.15 534.25,-961.88 549.63,-943.2 530.45,-764.25 544.25,-744.38 556.86,-726.22 577.18,-742.88 590,-724.88 623.34,-678.06 592.26,-522.15 608,-466.88 613.42,-447.86 623.72,-428.19 632.78,-413.11"/>
<polygon fill="black" stroke="black" points="635.67,-415.1 637.99,-404.76 629.73,-411.4 635.67,-415.1"/>
<text xml:space="preserve" text-anchor="middle" x="567.12" y="-747.58" font-family="Times,serif" font-size="14.00">low</text>
</g>
<!-- int_soap -->
<g id="node19" class="node">
<title>int_soap</title>
<ellipse fill="none" stroke="black" cx="651.19" cy="-772.88" rx="27" ry="18"/>
<text xml:space="preserve" text-anchor="middle" x="651.19" y="-769" font-family="Times,serif" font-size="10.00">soap</text>
</g>
<!-- sym_src_repo_surveyor_integration_patterns_cobol_base_py_BASE_variable_5&#45;&gt;int_soap -->
<g id="edge9" class="edge">
<title>sym_src_repo_surveyor_integration_patterns_cobol_base_py_BASE_variable_5&#45;&gt;int_soap</title>
<path fill="none" stroke="black" d="M294.6,-1026.23C345.59,-1023.8 457.85,-1012.61 534.25,-961.88 540.47,-957.74 538.56,-953.21 544.25,-948.38 561.68,-933.58 576.72,-943.48 590,-924.88 622.6,-879.18 577.6,-847.06 608,-799.88 610.78,-795.56 614.51,-791.81 618.62,-788.58"/>
<polygon fill="black" stroke="black" points="620.34,-791.64 626.71,-783.18 616.45,-785.81 620.34,-791.64"/>
<text xml:space="preserve" text-anchor="middle" x="567.12" y="-951.58" font-family="Times,serif" font-size="14.00">medium</text>
</g>
<!-- int_socket -->
<g id="node20" class="node">
<title>int_socket</title>
<ellipse fill="none" stroke="black" cx="651.19" cy="-1053.88" rx="27" ry="18"/>
<text xml:space="preserve" text-anchor="middle" x="651.19" y="-1050" font-family="Times,serif" font-size="10.00">socket</text>
</g>
<!-- sym_src_repo_surveyor_integration_patterns_cobol_base_py_BASE_variable_5&#45;&gt;int_socket -->
<g id="edge11" class="edge">
<title>sym_src_repo_surveyor_integration_patterns_cobol_base_py_BASE_variable_5&#45;&gt;int_socket</title>
<path fill="none" stroke="black" d="M294.32,-1023.49C349.99,-1017.2 482.27,-1006.24 590,-1028.38 599.83,-1030.4 610.05,-1034.06 619.21,-1038"/>
<polygon fill="black" stroke="black" points="617.48,-1041.05 628.03,-1042.02 620.39,-1034.68 617.48,-1041.05"/>
<text xml:space="preserve" text-anchor="middle" x="567.12" y="-1031.58" font-family="Times,serif" font-size="14.00">medium</text>
</g>
<!-- sym_src_repo_surveyor_integration_patterns_common_py_COMMON_variable_5 -->
<g id="node10" class="node">
<title>sym_src_repo_surveyor_integration_patterns_common_py_COMMON_variable_5</title>
<polygon fill="none" stroke="black" points="298.25,-724.88 235,-724.88 235,-688.88 298.25,-688.88 298.25,-724.88"/>
<text xml:space="preserve" text-anchor="middle" x="266.62" y="-708.63" font-family="Times,serif" font-size="10.00">COMMON</text>
<text xml:space="preserve" text-anchor="middle" x="266.62" y="-697.38" font-family="Times,serif" font-size="10.00">(variable)</text>
</g>
<!-- sym_src_repo_surveyor_integration_patterns_common_py_COMMON_variable_5&#45;&gt;int_http_rest -->
<g id="edge14" class="edge">
<title>sym_src_repo_surveyor_integration_patterns_common_py_COMMON_variable_5&#45;&gt;int_http_rest</title>
<path fill="none" stroke="black" d="M298.46,-716.04C356.54,-735.14 481.09,-785.22 534.25,-876.88 557.47,-916.9 517.82,-1046.89 544.25,-1084.88 556.88,-1103.02 574.75,-1088.37 590,-1104.38 625.52,-1141.65 640.45,-1201.72 646.45,-1237.44"/>
<polygon fill="black" stroke="black" points="642.95,-1237.7 647.92,-1247.06 649.86,-1236.64 642.95,-1237.7"/>
<text xml:space="preserve" text-anchor="middle" x="567.12" y="-1107.58" font-family="Times,serif" font-size="14.00">low</text>
</g>
<!-- sym_src_repo_surveyor_integration_patterns_common_py_COMMON_variable_5&#45;&gt;int_database -->
<g id="edge17" class="edge">
<title>sym_src_repo_surveyor_integration_patterns_common_py_COMMON_variable_5&#45;&gt;int_database</title>
<path fill="none" stroke="black" d="M295.13,-688.51C346.53,-653.26 458.77,-571.77 534.25,-483.88 539.84,-477.37 537.93,-473.17 544.25,-467.38 560.96,-452.07 571.45,-457.89 590,-444.88 603.91,-435.11 617.7,-422.14 628.56,-410.94"/>
<polygon fill="black" stroke="black" points="630.88,-413.57 635.21,-403.9 625.79,-408.77 630.88,-413.57"/>
<text xml:space="preserve" text-anchor="middle" x="567.12" y="-470.58" font-family="Times,serif" font-size="14.00">low</text>
</g>
<!-- sym_src_repo_surveyor_integration_patterns_common_py_COMMON_variable_5&#45;&gt;int_soap -->
<g id="edge15" class="edge">
<title>sym_src_repo_surveyor_integration_patterns_common_py_COMMON_variable_5&#45;&gt;int_soap</title>
<path fill="none" stroke="black" d="M298.5,-714.74C349.37,-727.38 454.13,-752.08 544.25,-764.88 566.84,-768.08 592.34,-770.06 612.66,-771.24"/>
<polygon fill="black" stroke="black" points="612.28,-774.73 622.46,-771.77 612.66,-767.74 612.28,-774.73"/>
<text xml:space="preserve" text-anchor="middle" x="567.12" y="-772.73" font-family="Times,serif" font-size="14.00">medium</text>
</g>
<!-- int_messaging -->
<g id="node21" class="node">
<title>int_messaging</title>
<ellipse fill="none" stroke="black" cx="651.19" cy="-493.88" rx="34.76" ry="18"/>
<text xml:space="preserve" text-anchor="middle" x="651.19" y="-490" font-family="Times,serif" font-size="10.00">messaging</text>
</g>
<!-- sym_src_repo_surveyor_integration_patterns_common_py_COMMON_variable_5&#45;&gt;int_messaging -->
<g id="edge16" class="edge">
<title>sym_src_repo_surveyor_integration_patterns_common_py_COMMON_variable_5&#45;&gt;int_messaging</title>
<path fill="none" stroke="black" d="M298.48,-688.58C349.31,-658.58 454.02,-597.37 544.25,-548.38 564.34,-537.47 569.67,-535.33 590,-524.88 598.23,-520.64 607.1,-516.08 615.42,-511.79"/>
<polygon fill="black" stroke="black" points="616.96,-514.93 624.25,-507.24 613.76,-508.71 616.96,-514.93"/>
<text xml:space="preserve" text-anchor="middle" x="567.12" y="-551.58" font-family="Times,serif" font-size="14.00">high</text>
</g>
<!-- int_grpc -->
<g id="node22" class="node">
<title>int_grpc</title>
<ellipse fill="none" stroke="black" cx="651.19" cy="-66.88" rx="27" ry="18"/>
<text xml:space="preserve" text-anchor="middle" x="651.19" y="-63" font-family="Times,serif" font-size="10.00">grpc</text>
</g>
<!-- sym_src_repo_surveyor_integration_patterns_common_py_COMMON_variable_5&#45;&gt;int_grpc -->
<g id="edge18" class="edge">
<title>sym_src_repo_surveyor_integration_patterns_common_py_COMMON_variable_5&#45;&gt;int_grpc</title>
<path fill="none" stroke="black" d="M298.45,-692.29C357.09,-662.61 483.4,-588.99 534.25,-483.88 552.23,-446.7 521.07,-146.55 544.25,-112.38 552.69,-99.93 587.74,-86.41 615.24,-77.37"/>
<polygon fill="black" stroke="black" points="616.19,-80.75 624.65,-74.37 614.06,-74.08 616.19,-80.75"/>
<text xml:space="preserve" text-anchor="middle" x="567.12" y="-115.58" font-family="Times,serif" font-size="14.00">medium</text>
</g>
<!-- int_graphql -->
<g id="node23" class="node">
<title>int_graphql</title>
<ellipse fill="none" stroke="black" cx="651.19" cy="-226.88" rx="28.11" ry="18"/>
<text xml:space="preserve" text-anchor="middle" x="651.19" y="-223" font-family="Times,serif" font-size="10.00">graphql</text>
</g>
<!-- sym_src_repo_surveyor_integration_patterns_common_py_COMMON_variable_5&#45;&gt;int_graphql -->
<g id="edge19" class="edge">
<title>sym_src_repo_surveyor_integration_patterns_common_py_COMMON_variable_5&#45;&gt;int_graphql</title>
<path fill="none" stroke="black" d="M298.54,-691.88C356.76,-661.74 481.54,-587.73 534.25,-483.88 549.72,-453.39 529.97,-361.43 544.25,-330.38 544.85,-329.08 595.45,-279.92 626.5,-249.82"/>
<polygon fill="black" stroke="black" points="628.84,-252.42 633.59,-242.95 623.97,-247.4 628.84,-252.42"/>
<text xml:space="preserve" text-anchor="middle" x="567.12" y="-333.58" font-family="Times,serif" font-size="14.00">low</text>
</g>
<!-- int_email -->
<g id="node24" class="node">
<title>int_email</title>
<ellipse fill="none" stroke="black" cx="651.19" cy="-626.88" rx="27" ry="18"/>
<text xml:space="preserve" text-anchor="middle" x="651.19" y="-623" font-family="Times,serif" font-size="10.00">email</text>
</g>
<!-- sym_src_repo_surveyor_integration_patterns_common_py_COMMON_variable_5&#45;&gt;int_email -->
<g id="edge20" class="edge">
<title>sym_src_repo_surveyor_integration_patterns_common_py_COMMON_variable_5&#45;&gt;int_email</title>
<path fill="none" stroke="black" d="M298.57,-695.2C349.1,-676.79 452.87,-641.75 544.25,-628.38 566.77,-625.08 592.26,-624.62 612.6,-625.02"/>
<polygon fill="black" stroke="black" points="612.31,-628.52 622.41,-625.3 612.51,-621.52 612.31,-628.52"/>
<text xml:space="preserve" text-anchor="middle" x="567.12" y="-631.58" font-family="Times,serif" font-size="14.00">low</text>
</g>
<!-- int_caching -->
<g id="node25" class="node">
<title>int_caching</title>
<ellipse fill="none" stroke="black" cx="651.19" cy="-986.88" rx="28.55" ry="18"/>
<text xml:space="preserve" text-anchor="middle" x="651.19" y="-983" font-family="Times,serif" font-size="10.00">caching</text>
</g>
<!-- sym_src_repo_surveyor_integration_patterns_common_py_COMMON_variable_5&#45;&gt;int_caching -->
<g id="edge21" class="edge">
<title>sym_src_repo_surveyor_integration_patterns_common_py_COMMON_variable_5&#45;&gt;int_caching</title>
<path fill="none" stroke="black" d="M298.37,-716.52C355.72,-736.28 478.28,-787.24 534.25,-876.88 555.1,-910.26 517.72,-935.8 544.25,-964.88 560.85,-983.07 588.25,-988.4 611.02,-989.27"/>
<polygon fill="black" stroke="black" points="610.88,-992.77 620.91,-989.35 610.94,-985.77 610.88,-992.77"/>
<text xml:space="preserve" text-anchor="middle" x="567.12" y="-990.29" font-family="Times,serif" font-size="14.00">low</text>
</g>
<!-- int_sse_streaming -->
<g id="node26" class="node">
<title>int_sse_streaming</title>
<ellipse fill="none" stroke="black" cx="651.19" cy="-880.88" rx="43.19" ry="18"/>
<text xml:space="preserve" text-anchor="middle" x="651.19" y="-877" font-family="Times,serif" font-size="10.00">sse_streaming</text>
</g>
<!-- sym_src_repo_surveyor_integration_patterns_common_py_COMMON_variable_5&#45;&gt;int_sse_streaming -->
<g id="edge22" class="edge">
<title>sym_src_repo_surveyor_integration_patterns_common_py_COMMON_variable_5&#45;&gt;int_sse_streaming</title>
<path fill="none" stroke="black" d="M298.61,-720.97C367.75,-752.42 534.56,-828.28 610.88,-863"/>
<polygon fill="black" stroke="black" points="609.1,-866.03 619.66,-866.99 612,-859.66 609.1,-866.03"/>
<text xml:space="preserve" text-anchor="middle" x="567.12" y="-854.9" font-family="Times,serif" font-size="14.00">low</text>
</g>
<!-- int_scheduling -->
<g id="node27" class="node">
<title>int_scheduling</title>
<ellipse fill="none" stroke="black" cx="651.19" cy="-826.88" rx="36.09" ry="18"/>
<text xml:space="preserve" text-anchor="middle" x="651.19" y="-823" font-family="Times,serif" font-size="10.00">scheduling</text>
</g>
<!-- sym_src_repo_surveyor_integration_patterns_common_py_COMMON_variable_5&#45;&gt;int_scheduling -->
<g id="edge23" class="edge">
<title>sym_src_repo_surveyor_integration_patterns_common_py_COMMON_variable_5&#45;&gt;int_scheduling</title>
<path fill="none" stroke="black" d="M298.61,-716.59C367.27,-738.13 532.25,-789.88 609.28,-814.04"/>
<polygon fill="black" stroke="black" points="607.95,-817.29 618.54,-816.95 610.05,-810.61 607.95,-817.29"/>
<text xml:space="preserve" text-anchor="middle" x="567.12" y="-809.96" font-family="Times,serif" font-size="14.00">low</text>
</g>
<!-- int_ftp_sftp -->
<g id="node28" class="node">
<title>int_ftp_sftp</title>
<ellipse fill="none" stroke="black" cx="651.19" cy="-706.88" rx="28.11" ry="18"/>
<text xml:space="preserve" text-anchor="middle" x="651.19" y="-703" font-family="Times,serif" font-size="10.00">ftp_sftp</text>
</g>
<!-- sym_src_repo_surveyor_integration_patterns_common_py_COMMON_variable_5&#45;&gt;int_ftp_sftp -->
<g id="edge24" class="edge">
<title>sym_src_repo_surveyor_integration_patterns_common_py_COMMON_variable_5&#45;&gt;int_ftp_sftp</title>
<path fill="none" stroke="black" d="M298.61,-706.88C367.92,-706.88 535.37,-706.88 611.43,-706.88"/>
<polygon fill="black" stroke="black" points="611.32,-710.38 621.32,-706.88 611.32,-703.38 611.32,-710.38"/>
<text xml:space="preserve" text-anchor="middle" x="567.12" y="-710.08" font-family="Times,serif" font-size="14.00">low</text>
</g>
<!-- sym_src_repo_surveyor_integration_patterns_cpp_base_py_BASE_variable_5 -->
<g id="node11" class="node">
<title>sym_src_repo_surveyor_integration_patterns_cpp_base_py_BASE_variable_5</title>
<polygon fill="none" stroke="black" points="294.12,-446.88 239.12,-446.88 239.12,-410.88 294.12,-410.88 294.12,-446.88"/>
<text xml:space="preserve" text-anchor="middle" x="266.62" y="-430.63" font-family="Times,serif" font-size="10.00">BASE</text>
<text xml:space="preserve" text-anchor="middle" x="266.62" y="-419.38" font-family="Times,serif" font-size="10.00">(variable)</text>
</g>
<!-- sym_src_repo_surveyor_integration_patterns_cpp_base_py_BASE_variable_5&#45;&gt;int_database -->
<g id="edge25" class="edge">
<title>sym_src_repo_surveyor_integration_patterns_cpp_base_py_BASE_variable_5&#45;&gt;int_database</title>
<path fill="none" stroke="black" d="M294.27,-431.65C344.22,-435.64 454.15,-438.65 534.25,-398.88 540.02,-396.01 538.34,-390.96 544.25,-388.38 564.92,-379.34 590.09,-378.62 610.71,-380.32"/>
<polygon fill="black" stroke="black" points="610.13,-383.78 620.45,-381.35 610.87,-376.81 610.13,-383.78"/>
<text xml:space="preserve" text-anchor="middle" x="567.12" y="-391.58" font-family="Times,serif" font-size="14.00">low</text>
</g>
<!-- sym_src_repo_surveyor_integration_patterns_cpp_base_py_BASE_variable_5&#45;&gt;int_soap -->
<g id="edge28" class="edge">
<title>sym_src_repo_surveyor_integration_patterns_cpp_base_py_BASE_variable_5&#45;&gt;int_soap</title>
<path fill="none" stroke="black" d="M291.42,-447.32C364.07,-503.72 578.8,-671 590,-686.38 603.29,-704.62 595.37,-715.16 608,-733.88 612.42,-740.43 618.15,-746.67 623.96,-752.15"/>
<polygon fill="black" stroke="black" points="621.43,-754.59 631.24,-758.6 626.07,-749.35 621.43,-754.59"/>
<text xml:space="preserve" text-anchor="middle" x="567.12" y="-689.58" font-family="Times,serif" font-size="14.00">medium</text>
</g>
<!-- sym_src_repo_surveyor_integration_patterns_cpp_base_py_BASE_variable_5&#45;&gt;int_messaging -->
<g id="edge26" class="edge">
<title>sym_src_repo_surveyor_integration_patterns_cpp_base_py_BASE_variable_5&#45;&gt;int_messaging</title>
<path fill="none" stroke="black" d="M294.58,-421.85C351.87,-408.36 488.79,-383.93 590,-428.38 608.21,-436.37 623.33,-452.9 633.87,-467.35"/>
<polygon fill="black" stroke="black" points="630.7,-468.93 639.25,-475.19 636.47,-464.97 630.7,-468.93"/>
<text xml:space="preserve" text-anchor="middle" x="567.12" y="-431.58" font-family="Times,serif" font-size="14.00">high</text>
</g>
<!-- sym_src_repo_surveyor_integration_patterns_cpp_base_py_BASE_variable_5&#45;&gt;int_grpc -->
<g id="edge27" class="edge">
<title>sym_src_repo_surveyor_integration_patterns_cpp_base_py_BASE_variable_5&#45;&gt;int_grpc</title>
<path fill="none" stroke="black" d="M294.5,-435.77C348.96,-447.93 472.39,-466.02 534.25,-398.88 559.14,-371.86 518.06,-94.14 544.25,-68.38 562.42,-50.49 591.97,-51.53 615.25,-56.25"/>
<polygon fill="black" stroke="black" points="614.41,-59.65 624.95,-58.53 616.02,-52.83 614.41,-59.65"/>
<text xml:space="preserve" text-anchor="middle" x="567.12" y="-71.58" font-family="Times,serif" font-size="14.00">medium</text>
</g>
<!-- sym_src_repo_surveyor_integration_patterns_cpp_base_py_BASE_variable_5&#45;&gt;int_graphql -->
<g id="edge30" class="edge">
<title>sym_src_repo_surveyor_integration_patterns_cpp_base_py_BASE_variable_5&#45;&gt;int_graphql</title>
<path fill="none" stroke="black" d="M294.35,-435.62C348.51,-447.52 471.43,-465.13 534.25,-398.88 560.21,-371.5 517.1,-255.58 544.25,-229.38 562.37,-211.89 591.4,-212.38 614.49,-216.63"/>
<polygon fill="black" stroke="black" points="613.61,-220.03 624.13,-218.72 615.1,-213.18 613.61,-220.03"/>
<text xml:space="preserve" text-anchor="middle" x="567.12" y="-232.58" font-family="Times,serif" font-size="14.00">low</text>
</g>
<!-- sym_src_repo_surveyor_integration_patterns_cpp_base_py_BASE_variable_5&#45;&gt;int_email -->
<g id="edge29" class="edge">
<title>sym_src_repo_surveyor_integration_patterns_cpp_base_py_BASE_variable_5&#45;&gt;int_email</title>
<path fill="none" stroke="black" d="M294.39,-432.56C363.09,-442.47 543.51,-471.44 590,-508.38 618.62,-531.11 634.86,-571.07 643.09,-598.24"/>
<polygon fill="black" stroke="black" points="639.64,-598.89 645.73,-607.55 646.37,-596.98 639.64,-598.89"/>
<text xml:space="preserve" text-anchor="middle" x="567.12" y="-511.58" font-family="Times,serif" font-size="14.00">low</text>
</g>
<!-- sym_src_repo_surveyor_integration_patterns_cpp_boost_py_FRAMEWORK_variable_5 -->
<g id="node12" class="node">
<title>sym_src_repo_surveyor_integration_patterns_cpp_boost_py_FRAMEWORK_variable_5</title>
<polygon fill="none" stroke="black" points="307.62,-1140.88 225.62,-1140.88 225.62,-1104.88 307.62,-1104.88 307.62,-1140.88"/>
<text xml:space="preserve" text-anchor="middle" x="266.62" y="-1124.63" font-family="Times,serif" font-size="10.00">FRAMEWORK</text>
<text xml:space="preserve" text-anchor="middle" x="266.62" y="-1113.38" font-family="Times,serif" font-size="10.00">(variable)</text>
</g>
<!-- sym_src_repo_surveyor_integration_patterns_cpp_boost_py_FRAMEWORK_variable_5&#45;&gt;int_http_rest -->
<g id="edge31" class="edge">
<title>sym_src_repo_surveyor_integration_patterns_cpp_boost_py_FRAMEWORK_variable_5&#45;&gt;int_http_rest</title>
<path fill="none" stroke="black" d="M307.67,-1120.52C366.38,-1119.42 475.22,-1126.8 534.25,-1189.88 551.23,-1208.02 526.9,-1227.09 544.25,-1244.88 553.31,-1254.16 583.41,-1259.83 609.22,-1263.08"/>
<polygon fill="black" stroke="black" points="608.48,-1266.52 618.82,-1264.2 609.29,-1259.56 608.48,-1266.52"/>
<text xml:space="preserve" text-anchor="middle" x="567.12" y="-1263.26" font-family="Times,serif" font-size="14.00">low</text>
</g>
<!-- sym_src_repo_surveyor_integration_patterns_cpp_boost_py_FRAMEWORK_variable_5&#45;&gt;int_socket -->
<g id="edge32" class="edge">
<title>sym_src_repo_surveyor_integration_patterns_cpp_boost_py_FRAMEWORK_variable_5&#45;&gt;int_socket</title>
<path fill="none" stroke="black" d="M307.85,-1125.81C362.99,-1127.91 463.27,-1124.7 534.25,-1081.88 540.64,-1078.02 537.83,-1072.18 544.25,-1068.38 564.74,-1056.24 591.29,-1052.63 612.68,-1052.04"/>
<polygon fill="black" stroke="black" points="612.47,-1055.54 622.45,-1052 612.44,-1048.54 612.47,-1055.54"/>
<text xml:space="preserve" text-anchor="middle" x="567.12" y="-1071.58" font-family="Times,serif" font-size="14.00">medium</text>
</g>
<!-- sym_src_repo_surveyor_integration_patterns_cpp_poco_py_FRAMEWORK_variable_5 -->
<g id="node13" class="node">
<title>sym_src_repo_surveyor_integration_patterns_cpp_poco_py_FRAMEWORK_variable_5</title>
<polygon fill="none" stroke="black" points="307.62,-924.88 225.62,-924.88 225.62,-888.88 307.62,-888.88 307.62,-924.88"/>
<text xml:space="preserve" text-anchor="middle" x="266.62" y="-908.63" font-family="Times,serif" font-size="10.00">FRAMEWORK</text>
<text xml:space="preserve" text-anchor="middle" x="266.62" y="-897.38" font-family="Times,serif" font-size="10.00">(variable)</text>
</g>
<!-- sym_src_repo_surveyor_integration_patterns_cpp_poco_py_FRAMEWORK_variable_5&#45;&gt;int_file_io -->
<g id="edge35" class="edge">
<title>sym_src_repo_surveyor_integration_patterns_cpp_poco_py_FRAMEWORK_variable_5&#45;&gt;int_file_io</title>
<path fill="none" stroke="black" d="M308.05,-907.38C368.28,-910.54 480.27,-926.22 534.25,-996.88 556.95,-1026.6 522.71,-1134.3 544.25,-1164.88 556.98,-1182.95 576.35,-1166.99 590,-1184.38 620.45,-1223.17 596.51,-1245.91 608,-1293.88 616.8,-1330.61 630.53,-1371.94 639.92,-1398.63"/>
<polygon fill="black" stroke="black" points="636.62,-1399.79 643.27,-1408.04 643.22,-1397.44 636.62,-1399.79"/>
<text xml:space="preserve" text-anchor="middle" x="567.12" y="-1187.58" font-family="Times,serif" font-size="14.00">low</text>
</g>
<!-- sym_src_repo_surveyor_integration_patterns_cpp_poco_py_FRAMEWORK_variable_5&#45;&gt;int_database -->
<g id="edge33" class="edge">
<title>sym_src_repo_surveyor_integration_patterns_cpp_poco_py_FRAMEWORK_variable_5&#45;&gt;int_database</title>
<path fill="none" stroke="black" d="M307.65,-898.06C368.42,-882.33 482.37,-843.16 534.25,-761.88 553.12,-732.31 528.65,-635.78 544.25,-604.38 556.2,-580.32 576.65,-588.19 590,-564.88 612.01,-526.45 593.5,-508.72 608,-466.88 614.47,-448.19 624.79,-428.53 633.6,-413.37"/>
<polygon fill="black" stroke="black" points="636.5,-415.35 638.62,-404.97 630.49,-411.76 636.5,-415.35"/>
<text xml:space="preserve" text-anchor="middle" x="567.12" y="-607.58" font-family="Times,serif" font-size="14.00">low</text>
</g>
<!-- sym_src_repo_surveyor_integration_patterns_cpp_poco_py_FRAMEWORK_variable_5&#45;&gt;int_email -->
<g id="edge34" class="edge">
<title>sym_src_repo_surveyor_integration_patterns_cpp_poco_py_FRAMEWORK_variable_5&#45;&gt;int_email</title>
<path fill="none" stroke="black" d="M308.05,-916.74C376.68,-930.8 515.71,-947.26 590,-871.88 620.08,-841.35 591.99,-719.63 608,-679.88 612.37,-669.03 619.71,-658.61 627.06,-649.92"/>
<polygon fill="black" stroke="black" points="629.49,-652.45 633.58,-642.68 624.29,-647.77 629.49,-652.45"/>
<text xml:space="preserve" text-anchor="middle" x="567.12" y="-905.08" font-family="Times,serif" font-size="14.00">low</text>
</g>
<!-- sym_src_repo_surveyor_integration_patterns_cpp_qt_py_FRAMEWORK_variable_5 -->
<g id="node14" class="node">
<title>sym_src_repo_surveyor_integration_patterns_cpp_qt_py_FRAMEWORK_variable_5</title>
<polygon fill="none" stroke="black" points="307.62,-276.88 225.62,-276.88 225.62,-240.88 307.62,-240.88 307.62,-276.88"/>
<text xml:space="preserve" text-anchor="middle" x="266.62" y="-260.63" font-family="Times,serif" font-size="10.00">FRAMEWORK</text>
<text xml:space="preserve" text-anchor="middle" x="266.62" y="-249.38" font-family="Times,serif" font-size="10.00">(variable)</text>
</g>
<!-- sym_src_repo_surveyor_integration_patterns_cpp_qt_py_FRAMEWORK_variable_5&#45;&gt;int_database -->
<g id="edge36" class="edge">
<title>sym_src_repo_surveyor_integration_patterns_cpp_qt_py_FRAMEWORK_variable_5&#45;&gt;int_database</title>
<path fill="none" stroke="black" d="M308.07,-247.86C373.12,-232.64 502.52,-212.9 590,-268.38 621.2,-288.16 636.92,-329.56 644.32,-357.79"/>
<polygon fill="black" stroke="black" points="640.91,-358.6 646.65,-367.51 647.72,-356.97 640.91,-358.6"/>
<text xml:space="preserve" text-anchor="middle" x="567.12" y="-271.58" font-family="Times,serif" font-size="14.00">low</text>
</g>
<!-- sym_src_repo_surveyor_integration_patterns_csharp_aspnet_core_py_FRAMEWORK_variable_5 -->
<g id="node15" class="node">
<title>sym_src_repo_surveyor_integration_patterns_csharp_aspnet_core_py_FRAMEWORK_variable_5</title>
<polygon fill="none" stroke="black" points="307.62,-164.88 225.62,-164.88 225.62,-128.88 307.62,-128.88 307.62,-164.88"/>
<text xml:space="preserve" text-anchor="middle" x="266.62" y="-148.63" font-family="Times,serif" font-size="10.00">FRAMEWORK</text>
<text xml:space="preserve" text-anchor="middle" x="266.62" y="-137.38" font-family="Times,serif" font-size="10.00">(variable)</text>
</g>
<!-- sym_src_repo_surveyor_integration_patterns_csharp_aspnet_core_py_FRAMEWORK_variable_5&#45;&gt;int_database -->
<g id="edge37" class="edge">
<title>sym_src_repo_surveyor_integration_patterns_csharp_aspnet_core_py_FRAMEWORK_variable_5&#45;&gt;int_database</title>
<path fill="none" stroke="black" d="M307.89,-147.43C384.76,-149.3 548.49,-157.52 590,-193.38 611.23,-211.71 599.76,-227.06 608,-253.88 619.04,-289.78 632.18,-330.98 640.83,-357.89"/>
<polygon fill="black" stroke="black" points="637.5,-358.95 643.89,-367.4 644.16,-356.81 637.5,-358.95"/>
<text xml:space="preserve" text-anchor="middle" x="567.12" y="-196.58" font-family="Times,serif" font-size="14.00">low</text>
</g>
<!-- sym_src_repo_surveyor_integration_patterns_csharp_aspnet_core_py_FRAMEWORK_variable_5&#45;&gt;int_grpc -->
<g id="edge38" class="edge">
<title>sym_src_repo_surveyor_integration_patterns_csharp_aspnet_core_py_FRAMEWORK_variable_5&#45;&gt;int_grpc</title>
<path fill="none" stroke="black" d="M299.02,-128.38C348.93,-100.17 450.33,-47.64 544.25,-28.38 564.17,-24.29 570.48,-22.67 590,-28.38 602.45,-32.02 614.77,-39.11 625,-46.22"/>
<polygon fill="black" stroke="black" points="622.75,-48.91 632.87,-52.04 626.91,-43.28 622.75,-48.91"/>
<text xml:space="preserve" text-anchor="middle" x="567.12" y="-31.58" font-family="Times,serif" font-size="14.00">medium</text>
</g>
<!-- sym_src_repo_surveyor_integration_patterns_csharp_aspnet_core_py_FRAMEWORK_variable_5&#45;&gt;int_graphql -->
<g id="edge39" class="edge">
<title>sym_src_repo_surveyor_integration_patterns_csharp_aspnet_core_py_FRAMEWORK_variable_5&#45;&gt;int_graphql</title>
<path fill="none" stroke="black" d="M307.89,-136.3C371.57,-121.85 497.75,-102.6 590,-148.38 611.35,-158.97 627.24,-181.14 637.32,-199.23"/>
<polygon fill="black" stroke="black" points="634.14,-200.71 641.87,-207.95 640.34,-197.46 634.14,-200.71"/>
<text xml:space="preserve" text-anchor="middle" x="567.12" y="-151.58" font-family="Times,serif" font-size="14.00">low</text>
</g>
</g>
</svg>
