<?xml version="1.0" encoding="UTF-8" standalone="no"?>
<!DOCTYPE svg PUBLIC "-//W3C//DTD SVG 1.1//EN"
 "http://www.w3.org/Graphics/SVG/1.1/DTD/svg11.dtd">
<!-- Generated by graphviz version 13.0.1 (20250615.1724)
 -->
<!-- Title: SMojol API Integration Signals Pages: 1 -->
<svg width="1238pt" height="749pt"
 viewBox="0.00 0.00 1238.00 749.00" xmlns="http://www.w3.org/2000/svg" xmlns:xlink="http://www.w3.org/1999/xlink">
<g id="graph0" class="graph" transform="scale(1 1) rotate(0) translate(4 745.09)">
<title>SMojol API Integration Signals</title>
<polygon fill="white" stroke="none" points="-4,4 -4,-745.09 1234.07,-745.09 1234.07,4 -4,4"/>
<text xml:space="preserve" text-anchor="middle" x="615.04" y="-721.89" font-family="Helvetica,sans-Serif" font-size="16.00">SMojol API Integration Signals</text>
<g id="clust1" class="cluster">
<title>cluster_0</title>
<path fill="none" stroke="#64748b" stroke-dasharray="5,2" d="M12,-278.69C12,-278.69 381.1,-278.69 381.1,-278.69 387.1,-278.69 393.1,-284.69 393.1,-290.69 393.1,-290.69 393.1,-380.44 393.1,-380.44 393.1,-386.44 387.1,-392.44 381.1,-392.44 381.1,-392.44 12,-392.44 12,-392.44 6,-392.44 0,-386.44 0,-380.44 0,-380.44 0,-290.69 0,-290.69 0,-284.69 6,-278.69 12,-278.69"/>
<text xml:space="preserve" text-anchor="middle" x="196.55" y="-379.89" font-family="Helvetica,sans-Serif" font-size="9.00">/Users/asgupta/code/smojol/smojol&#45;api/src/main/java/org/smojol/api/ApiServer.java</text>
</g>
<g id="clust2" class="cluster">
<title>cluster_1</title>
<path fill="none" stroke="#64748b" stroke-dasharray="5,2" d="M603.6,-413.7C603.6,-413.7 975.6,-413.7 975.6,-413.7 981.6,-413.7 987.6,-419.7 987.6,-425.7 987.6,-425.7 987.6,-471.45 987.6,-471.45 987.6,-477.45 981.6,-483.45 975.6,-483.45 975.6,-483.45 603.6,-483.45 603.6,-483.45 597.6,-483.45 591.6,-477.45 591.6,-471.45 591.6,-471.45 591.6,-425.7 591.6,-425.7 591.6,-419.7 597.6,-413.7 603.6,-413.7"/>
<text xml:space="preserve" text-anchor="middle" x="789.6" y="-470.9" font-family="Helvetica,sans-Serif" font-size="9.00">/Users/asgupta/code/smojol/smojol&#45;api/src/main/java/org/smojol/api/database/DbContext.java</text>
</g>
<g id="clust3" class="cluster">
<title>cluster_2</title>
<path fill="none" stroke="#64748b" stroke-dasharray="5,2" d="M706.27,-200.94C706.27,-200.94 1120.27,-200.94 1120.27,-200.94 1126.27,-200.94 1132.27,-206.94 1132.27,-212.94 1132.27,-212.94 1132.27,-258.69 1132.27,-258.69 1132.27,-264.69 1126.27,-270.69 1120.27,-270.69 1120.27,-270.69 706.27,-270.69 706.27,-270.69 700.27,-270.69 694.27,-264.69 694.27,-258.69 694.27,-258.69 694.27,-212.94 694.27,-212.94 694.27,-206.94 700.27,-200.94 706.27,-200.94"/>
<text xml:space="preserve" text-anchor="middle" x="913.27" y="-258.14" font-family="Helvetica,sans-Serif" font-size="9.00">/Users/asgupta/code/smojol/smojol&#45;api/src/main/java/org/smojol/api/pipeline/BackendPipelineMain.java</text>
</g>
<!-- sym_src_main_java_org_smojol_api_ApiServer_java_flowgraph_method_137 -->
<g id="node1" class="node">
<title>sym_src_main_java_org_smojol_api_ApiServer_java_flowgraph_method_137</title>
<path fill="#1e293b" stroke="black" d="M373.1,-322.69C373.1,-322.69 339.1,-322.69 339.1,-322.69 333.1,-322.69 327.1,-316.69 327.1,-310.69 327.1,-310.69 327.1,-298.69 327.1,-298.69 327.1,-292.69 333.1,-286.69 339.1,-286.69 339.1,-286.69 373.1,-286.69 373.1,-286.69 379.1,-286.69 385.1,-292.69 385.1,-298.69 385.1,-298.69 385.1,-310.69 385.1,-310.69 385.1,-316.69 379.1,-322.69 373.1,-322.69"/>
<text xml:space="preserve" text-anchor="middle" x="356.1" y="-306.44" font-family="Helvetica,sans-Serif" font-size="10.00" fill="#e2e8f0">flowgraph</text>
<text xml:space="preserve" text-anchor="middle" x="356.1" y="-295.19" font-family="Helvetica,sans-Serif" font-size="10.00" fill="#e2e8f0">(method)</text>
</g>
<!-- int_file_io -->
<g id="node5" class="node">
<title>int_file_io</title>
<ellipse fill="#0d9488" stroke="black" cx="588.85" cy="-18" rx="27" ry="18"/>
<text xml:space="preserve" text-anchor="middle" x="588.85" y="-14.12" font-family="Helvetica,sans-Serif" font-size="10.00" fill="white">file_io</text>
</g>
<!-- sym_src_main_java_org_smojol_api_ApiServer_java_flowgraph_method_137&#45;&#45;int_file_io -->
<g id="edge1" class="edge">
<title>sym_src_main_java_org_smojol_api_ApiServer_java_flowgraph_method_137&#45;&#45;int_file_io</title>
<path fill="none" stroke="#94a3b8" stroke-dasharray="5,2" d="M371.01,-286.32C413.65,-233.8 535.6,-83.59 575.82,-34.06"/>
<text xml:space="preserve" text-anchor="middle" x="468.32" y="-160.47" font-family="Helvetica,sans-Serif" font-size="8.00">low</text>
</g>
<!-- sym_src_main_java_org_smojol_api_ApiServer_java_runServer_method_44 -->
<g id="node2" class="node">
<title>sym_src_main_java_org_smojol_api_ApiServer_java_runServer_method_44</title>
<path fill="#1e293b" stroke="black" d="M54,-366.69C54,-366.69 20,-366.69 20,-366.69 14,-366.69 8,-360.69 8,-354.69 8,-354.69 8,-342.69 8,-342.69 8,-336.69 14,-330.69 20,-330.69 20,-330.69 54,-330.69 54,-330.69 60,-330.69 66,-336.69 66,-342.69 66,-342.69 66,-354.69 66,-354.69 66,-360.69 60,-366.69 54,-366.69"/>
<text xml:space="preserve" text-anchor="middle" x="37" y="-350.44" font-family="Helvetica,sans-Serif" font-size="10.00" fill="#e2e8f0">runServer</text>
<text xml:space="preserve" text-anchor="middle" x="37" y="-339.19" font-family="Helvetica,sans-Serif" font-size="10.00" fill="#e2e8f0">(method)</text>
</g>
<!-- int_http_rest -->
<g id="node6" class="node">
<title>int_http_rest</title>
<ellipse fill="#0d9488" stroke="black" cx="342.33" cy="-698.59" rx="32.1" ry="18"/>
<text xml:space="preserve" text-anchor="middle" x="342.33" y="-694.72" font-family="Helvetica,sans-Serif" font-size="10.00" fill="white">http_rest</text>
</g>
<!-- sym_src_main_java_org_smojol_api_ApiServer_java_runServer_method_44&#45;&#45;int_http_rest -->
<g id="edge2" class="edge">
<title>sym_src_main_java_org_smojol_api_ApiServer_java_runServer_method_44&#45;&#45;int_http_rest</title>
<path fill="none" stroke="#94a3b8" stroke-dasharray="5,2" d="M52.99,-367.01C106.24,-428.04 277.11,-623.85 327.94,-682.1"/>
<text xml:space="preserve" text-anchor="middle" x="185.37" y="-527" font-family="Helvetica,sans-Serif" font-size="8.00">low</text>
</g>
<!-- sym_src_main_java_org_smojol_api_database_DbContext_java_execute_method_26 -->
<g id="node3" class="node">
<title>sym_src_main_java_org_smojol_api_database_DbContext_java_execute_method_26</title>
<path fill="#1e293b" stroke="black" d="M804.72,-457.7C804.72,-457.7 774.47,-457.7 774.47,-457.7 768.47,-457.7 762.47,-451.7 762.47,-445.7 762.47,-445.7 762.47,-433.7 762.47,-433.7 762.47,-427.7 768.47,-421.7 774.47,-421.7 774.47,-421.7 804.72,-421.7 804.72,-421.7 810.72,-421.7 816.72,-427.7 816.72,-433.7 816.72,-433.7 816.72,-445.7 816.72,-445.7 816.72,-451.7 810.72,-457.7 804.72,-457.7"/>
<text xml:space="preserve" text-anchor="middle" x="789.6" y="-441.45" font-family="Helvetica,sans-Serif" font-size="10.00" fill="#e2e8f0">execute</text>
<text xml:space="preserve" text-anchor="middle" x="789.6" y="-430.2" font-family="Helvetica,sans-Serif" font-size="10.00" fill="#e2e8f0">(method)</text>
</g>
<!-- int_database -->
<g id="node7" class="node">
<title>int_database</title>
<ellipse fill="#0d9488" stroke="black" cx="1197.09" cy="-387.69" rx="32.99" ry="18"/>
<text xml:space="preserve" text-anchor="middle" x="1197.09" y="-383.82" font-family="Helvetica,sans-Serif" font-size="10.00" fill="white">database</text>
</g>
<!-- sym_src_main_java_org_smojol_api_database_DbContext_java_execute_method_26&#45;&#45;int_database -->
<g id="edge3" class="edge">
<title>sym_src_main_java_org_smojol_api_database_DbContext_java_execute_method_26&#45;&#45;int_database</title>
<path fill="none" stroke="#0d9488" stroke-width="2" d="M816.97,-436.2C889.51,-426.95 1086.47,-401.81 1164.56,-391.84"/>
<text xml:space="preserve" text-anchor="middle" x="981.18" y="-415.69" font-family="Helvetica,sans-Serif" font-size="8.00">high</text>
</g>
<!-- sym_src_main_java_org_smojol_api_pipeline_BackendPipelineMain_java_main_method_48 -->
<g id="node4" class="node">
<title>sym_src_main_java_org_smojol_api_pipeline_BackendPipelineMain_java_main_method_48</title>
<path fill="#1e293b" stroke="black" d="M928.4,-244.94C928.4,-244.94 898.15,-244.94 898.15,-244.94 892.15,-244.94 886.15,-238.94 886.15,-232.94 886.15,-232.94 886.15,-220.94 886.15,-220.94 886.15,-214.94 892.15,-208.94 898.15,-208.94 898.15,-208.94 928.4,-208.94 928.4,-208.94 934.4,-208.94 940.4,-214.94 940.4,-220.94 940.4,-220.94 940.4,-232.94 940.4,-232.94 940.4,-238.94 934.4,-244.94 928.4,-244.94"/>
<text xml:space="preserve" text-anchor="middle" x="913.27" y="-228.69" font-family="Helvetica,sans-Serif" font-size="10.00" fill="#e2e8f0">main</text>
<text xml:space="preserve" text-anchor="middle" x="913.27" y="-217.44" font-family="Helvetica,sans-Serif" font-size="10.00" fill="#e2e8f0">(method)</text>
</g>
<!-- sym_src_main_java_org_smojol_api_pipeline_BackendPipelineMain_java_main_method_48&#45;&#45;int_file_io -->
<g id="edge4" class="edge">
<title>sym_src_main_java_org_smojol_api_pipeline_BackendPipelineMain_java_main_method_48&#45;&#45;int_file_io</title>
<path fill="none" stroke="#94a3b8" stroke-dasharray="5,2" d="M885.89,-209.3C821.89,-168.08 663.71,-66.21 608.36,-30.56"/>
<text xml:space="preserve" text-anchor="middle" x="737.88" y="-119.24" font-family="Helvetica,sans-Serif" font-size="8.00">low</text>
</g>
</g>
</svg>
